<?xml version="1.0" encoding="UTF-8"?><svg id="Layer_1" xmlns="http://www.w3.org/2000/svg" width="110" height="22" viewBox="0 0 110 22"><defs><style>.cls-1{fill:#656565;}</style></defs><path id="Path_67923" class="cls-1" d="M17.79,16.75l-3.45-3.47c.88-1,1.37-2.3,1.37-3.63-.06-3.18-2.68-5.7-5.86-5.65-3.18-.05-5.79,2.48-5.86,5.65.06,3.17,2.68,5.7,5.86,5.65,1.2,0,2.36-.35,3.35-1.02l3.48,3.49c.3.29.77.3,1.08.02.29-.27.31-.72.05-1.02,0,0-.02-.02-.02-.03M9.86,5.48c2.35-.04,4.28,1.83,4.33,4.18-.04,2.35-1.98,4.21-4.33,4.18-2.35.04-4.28-1.83-4.33-4.18.04-2.35,1.98-4.22,4.33-4.18"/><path id="Path_67923-2" class="cls-1" d="M39.79,16.75l-3.45-3.47c.88-1,1.37-2.3,1.37-3.63-.06-3.18-2.68-5.7-5.86-5.65-3.18-.05-5.79,2.48-5.86,5.65.06,3.17,2.68,5.7,5.86,5.65,1.2,0,2.36-.35,3.35-1.02l3.48,3.49c.3.29.77.3,1.08.02.29-.27.31-.72.05-1.02,0,0-.02-.02-.02-.03M31.86,5.48c2.35-.04,4.28,1.83,4.33,4.18-.04,2.35-1.98,4.21-4.33,4.18-2.35.04-4.28-1.83-4.33-4.18.04-2.35,1.98-4.22,4.33-4.18"/><path id="Path_67923-3" class="cls-1" d="M61.79,16.75l-3.45-3.47c.88-1,1.37-2.3,1.37-3.63-.06-3.18-2.68-5.7-5.86-5.65-3.18-.05-5.79,2.48-5.86,5.65.06,3.17,2.68,5.7,5.86,5.65,1.2,0,2.36-.35,3.35-1.02l3.48,3.49c.3.29.77.3,1.08.02.29-.27.31-.72.05-1.02,0,0-.02-.02-.02-.03M53.86,5.48c2.35-.04,4.28,1.83,4.33,4.18-.04,2.35-1.98,4.21-4.33,4.18-2.35.04-4.28-1.83-4.33-4.18.04-2.35,1.98-4.22,4.33-4.18"/><path id="Path_67923-4" class="cls-1" d="M83.79,16.75l-3.45-3.47c.88-1,1.37-2.3,1.37-3.63-.06-3.18-2.68-5.7-5.86-5.65-3.18-.05-5.79,2.48-5.86,5.65.06,3.17,2.68,5.7,5.86,5.65,1.2,0,2.36-.35,3.35-1.02l3.48,3.49c.3.29.77.3,1.08.02.29-.27.31-.72.05-1.02,0,0-.02-.02-.02-.03M75.86,5.48c2.35-.04,4.28,1.83,4.33,4.18-.04,2.35-1.98,4.21-4.33,4.18-2.35.04-4.28-1.83-4.33-4.18.04-2.35,1.98-4.22,4.33-4.18"/><path id="Path_67923-5" class="cls-1" d="M105.79,16.75l-3.45-3.47c.88-1,1.37-2.3,1.37-3.63-.06-3.18-2.68-5.7-5.86-5.65-3.18-.05-5.79,2.48-5.86,5.65.06,3.17,2.68,5.7,5.86,5.65,1.2,0,2.36-.35,3.35-1.02l3.48,3.49c.3.29.77.3,1.08.02.29-.27.31-.72.05-1.02,0,0-.02-.02-.02-.03M97.86,5.48c2.35-.04,4.28,1.83,4.33,4.18-.04,2.35-1.98,4.21-4.33,4.18-2.35.04-4.28-1.83-4.33-4.18.04-2.35,1.98-4.22,4.33-4.18"/></svg>