<?xml version="1.0" encoding="UTF-8"?>
<svg id="Layer_1" xmlns="http://www.w3.org/2000/svg" width="30" height="30" version="1.1" viewBox="0 0 30 30">
  <!-- Generator: Adobe Illustrator 29.6.1, SVG Export Plug-In . SVG Version: 2.1.1 Build 9)  -->
  <defs>
    <style>
      .st0 {
        fill: #ededed;
      }
    </style>
  </defs>
  <g id="arrow">
    <g id="Group_409-3">
      <path id="Path_304-3" class="st0" d="M2.2,26.3s0,0,.1-.1l7.5-7.5h-.2c-.2.2-.5.2-.7.2h-4.2c-.5,0-1-.4-1.1-.9,0-.6.3-1.1.9-1.2,0,0,0,0,.1,0h7.6c.6,0,1.1.5,1.1,1.1h0v7.6c0,.6-.5,1.1-1.1,1.1,0,0,0,0-.1,0-.5-.1-.9-.6-.9-1.1v-4.2c0-.2,0-.4,0-.7v-.3c.1,0-7.4,7.5-7.4,7.5-.4.4-1,.5-1.4.2-.5-.3-.6-1-.2-1.5h0Z"/>
    </g>
  </g>
  <g id="arrow1" data-name="arrow">
    <g id="Group_409-31" data-name="Group_409-3">
      <path id="Path_304-31" data-name="Path_304-3" class="st0" d="M27.8,3.7s0,0-.1.1l-7.5,7.5h.2c.2-.2.5-.2.7-.2h4.2c.5,0,1,.4,1.1.9,0,.6-.3,1.1-.9,1.2,0,0,0,0-.1,0h-7.6c-.6,0-1.1-.5-1.1-1.1h0v-7.6c0-.6.5-1.1,1.1-1.1,0,0,0,0,.1,0,.5.1.9.6.9,1.1v4.2c0,.2,0,.4,0,.7v.3c-.1,0,7.4-7.5,7.4-7.5.4-.4,1-.5,1.4-.2.5.3.6,1,.2,1.5h0Z"/>
    </g>
  </g>
</svg>