<?xml version="1.0" encoding="UTF-8"?><svg id="Layer_1" xmlns="http://www.w3.org/2000/svg" width="110" height="22" viewBox="0 0 110 22"><defs><style>.cls-1{fill:#adadad;}</style></defs><polygon class="cls-1" points="61 15.79 56.18 10.99 60.99 6.15 59.82 5 55.01 9.84 50.15 5.01 49 6.17 53.86 11 49.04 15.85 50.21 17 55.02 12.16 59.85 16.95 61 15.79"/><polygon class="cls-1" points="39 15.79 34.18 10.99 38.99 6.15 37.82 5 33.01 9.84 28.15 5.01 27 6.17 31.86 11 27.04 15.85 28.21 17 33.02 12.16 37.85 16.95 39 15.79"/><polygon class="cls-1" points="17 15.79 12.18 10.99 16.99 6.15 15.82 5 11.01 9.84 6.15 5.01 5 6.17 9.86 11 5.04 15.85 6.21 17 11.02 12.16 15.85 16.95 17 15.79"/><polygon class="cls-1" points="83 15.79 78.18 10.99 82.99 6.15 81.82 5 77.01 9.84 72.15 5.01 71 6.17 75.86 11 71.04 15.85 72.21 17 77.02 12.16 81.85 16.95 83 15.79"/><polygon class="cls-1" points="105 15.79 100.18 10.99 104.99 6.15 103.82 5 99.01 9.84 94.15 5.01 93 6.17 97.86 11 93.04 15.85 94.21 17 99.02 12.16 103.85 16.95 105 15.79"/></svg>