<?xml version="1.0" encoding="UTF-8"?>
<svg id="Layer_2" data-name="Layer 2" xmlns="http://www.w3.org/2000/svg" version="1.1" viewBox="0 0 26 19">
  <defs>
    <style>
      .cls-1 {
        fill: #33a1d9;
      }

      .cls-1, .cls-2, .cls-3 {
        stroke-width: 0px;
      }

      .cls-2 {
        fill: #3a3a3a;
      }

      .cls-3 {
        fill: #fff;
      }
    </style>
  </defs>
  <g>
    <rect class="cls-2" x="13" width="13" height="13"/>
    <path class="cls-3" d="M21,8.4h-3.1l-.6,1.6h-1.3l2.9-7h1.2l2.8,7h-1.3l-.6-1.6ZM18.3,7.4h2.3l-1.1-3h0l-1.1,3Z"/>
  </g>
  <g>
    <path class="cls-1" d="M11.9,14V4c-1.2-.7-2.5-1-3.9-1C3.6,3,0,6.6,0,11s3.6,8,8,8,6.2-2.1,7.4-5h-3.5Z"/>
    <path class="cls-3" d="M6.8,13.5v-.3c0-1,.1-1.6.2-1.8.1-.2.5-.6,1.2-1.1.4-.3.7-.5.9-.7.1-.2.2-.5.2-.9s-.1-.7-.4-1c-.2-.2-.5-.3-.9-.3-1,0-1.5.6-1.6,2l-2.2-.3c.2-1.2.6-2.1,1.4-2.8.6-.6,1.5-1,2.6-1s1.9.3,2.7,1,1.1,1.4,1.1,2.3-.6,2.1-1.8,3c-.5.3-.9.6-1,.9s-.2.5-.2,1.1h-2ZM9.4,16.7h-2.6v-2.5h2.6v2.5h0Z"/>
  </g>
</svg>