<?xml version="1.0" encoding="UTF-8"?>
<svg id="Layer_2" data-name="Layer 2" xmlns="http://www.w3.org/2000/svg" version="1.1" viewBox="0 0 26 19">
  <defs>
    <style>
      .cls-1 {
        fill: #3a3a3a;
      }

      .cls-1, .cls-2, .cls-3 {
        stroke-width: 0px;
      }

      .cls-2 {
        fill: #fff;
      }

      .cls-3 {
        fill: #139a48;
      }
    </style>
  </defs>
  <g>
    <rect class="cls-1" x="13" width="13" height="13"/>
    <path class="cls-2" d="M21,8.4h-3.1l-.6,1.6h-1.3l2.9-7h1.2l2.8,7h-1.3l-.6-1.6ZM18.3,7.4h2.3l-1.1-3h0l-1.1,3Z"/>
  </g>
  <path class="cls-3" d="M11.9,14V4c-1.2-.6-2.5-1-3.9-1C3.6,3,0,6.6,0,11s3.6,8,8,8,6.2-2.1,7.4-5h-3.5Z"/>
  <polygon class="cls-2" points="12 7.1 11.3 6.5 6.1 12.5 4.3 11.1 2.9 12.8 6.6 15.5 12 9.2 12 7.1"/>
</svg>