<?xml version="1.0" encoding="UTF-8"?>
<svg id="Layer_2" data-name="Layer 2" xmlns="http://www.w3.org/2000/svg" version="1.1" viewBox="0 0 26 19">
  <defs>
    <style>
      .cls-1 {
        fill: #cbc12d;
      }

      .cls-1, .cls-2, .cls-3 {
        stroke-width: 0px;
      }

      .cls-2 {
        fill: #3a3a3a;
      }

      .cls-3 {
        fill: #fff;
      }
    </style>
  </defs>
  <g>
    <rect class="cls-2" x="13" width="13" height="13"/>
    <path class="cls-3" d="M21,8.4h-3.1l-.6,1.6h-1.3l2.9-7h1.2l2.8,7h-1.3l-.6-1.6ZM18.3,7.4h2.3l-1.1-3h0l-1.1,3Z"/>
  </g>
  <path class="cls-1" d="M11.9,14V4c-1.2-.7-2.5-1-3.9-1C3.6,3,0,6.6,0,11s3.6,8,8,8,6.2-2.1,7.4-5h-3.5Z"/>
  <g>
    <circle class="cls-3" cx="9" cy="6" r="1.3"/>
    <path class="cls-3" d="M9.4,15.1l-.4.4c-.4.4-.6.5-.8.4-.2,0-.3-.4-.2-.7,0,0,0-.3.2-.7l1.8-6.4-4.1.7v.4c0,0,.3,0,.5,0,0,0,.8,0,1,0h0v.3c0,0,0,.6-.4,1.2l-1.2,4.2c-.2.7-.3,1.1-.3,1.2,0,.3,0,.8.6,1.1.8.4,1.8-.2,2.5-.8.8-.7.8-.8,1.4-1.5l-.4-.3c0,0-.3.4-.4.4Z"/>
  </g>
</svg>