<?xml version="1.0" encoding="utf-8"?>
<!-- Generator: Adobe Illustrator 22.1.0, SVG Export Plug-In . SVG Version: 6.00 Build 0)  -->
<svg version="1.1" id="Layer_1" xmlns="http://www.w3.org/2000/svg" xmlns:xlink="http://www.w3.org/1999/xlink" x="0px" y="0px"
	 viewBox="0 0 18 18" style="enable-background:new 0 0 18 18;" xml:space="preserve">
<style type="text/css">
	.st0{fill:#CC2128;}
</style>
<g>
	<rect x="13.394" y="14.703" class="st0" width="4.606" height="1.13"/>
	<polygon class="st0" points="15.706,2.277 13.394,2.277 13.394,3.406 15.706,3.406 15.706,4.536 13.394,4.536 13.394,5.666 
		15.706,5.666 15.706,6.795 13.394,6.795 13.394,7.925 15.706,7.925 15.706,9.055 13.394,9.055 13.394,10.184 15.706,10.184 
		15.706,11.314 13.394,11.314 13.394,13.573 15.706,13.573 16.413,13.573 16.844,13.573 16.844,1.147 16.844,0 7.597,0 7.597,1.147 
		15.706,1.147 	"/>
	<path class="st0" d="M8.714,15.832h3.501V2.277h-9.22v13.555h3.452v1.084H1.835V18h11.559v-1.084H8.714V15.832z M4.129,3.406h6.935
		v1.13H4.129V3.406z M4.129,5.666h6.935v1.13H4.129V5.666z M4.129,7.925h6.935v1.13H4.129V7.925z M4.129,10.184h6.935v1.13H4.129
		V10.184z M4.129,13.573v-1.13h6.935v1.13H4.129z"/>
</g>
</svg>
