<?xml version="1.0" encoding="utf-8"?>
<!-- Generator: Adobe Illustrator 22.1.0, SVG Export Plug-In . SVG Version: 6.00 Build 0)  -->
<svg version="1.1" id="Layer_1" xmlns="http://www.w3.org/2000/svg" xmlns:xlink="http://www.w3.org/1999/xlink" x="0px" y="0px"
	 viewBox="0 0 18 18" style="enable-background:new 0 0 18 18;" xml:space="preserve">
<style type="text/css">
	.st0{fill:#CBC12D;}
</style>
<g>
	<path class="st0" d="M17.208,2.619H6.029c-0.44,0-0.792,0.352-0.792,0.792V7.46c0.132,0.029,0.411,0.103,0.587,0.205l0.22,0.176
		V3.425h11.178v6.381H6.998C6.983,9.866,6.968,9.939,6.954,9.983c-0.029,0.191-0.103,0.308-0.176,0.396
		c-0.059,0.352,0.088,0.704-0.103,1.027h3.345c0,0.572-0.029,1.335-0.235,1.599H9.623c-0.22,0-0.396,0.176-0.396,0.396
		s0.176,0.396,0.396,0.396h3.99c0.22,0,0.396-0.176,0.396-0.396s-0.176-0.396-0.396-0.396h-0.161
		c-0.22-0.264-0.235-1.012-0.235-1.599h3.99c0.44,0,0.792-0.352,0.792-0.792V3.425C18,2.985,17.648,2.619,17.208,2.619z"/>
</g>
<path class="st0" d="M7.232,13.929H6.675c-0.616,0-1.115-0.499-1.115-1.115v-0.352c0.249-0.293,0.425-0.631,0.528-1.012
	c0.015-0.059,0.073-0.088,0.103-0.147c0.22-0.22,0.249-0.572,0.088-0.836C6.264,10.423,6.22,10.394,6.22,10.35
	c0-0.323,0-0.645,0-0.983c-0.015-0.381-0.117-0.807-0.396-1.1C5.604,8.032,5.296,7.9,4.973,7.826
	C4.577,7.753,4.152,7.753,3.77,7.856C3.433,7.944,3.11,8.149,2.905,8.443c-0.176,0.264-0.249,0.572-0.264,0.88
	c0,0.323,0,0.66,0,1.012c0,0.059-0.044,0.103-0.073,0.176c-0.161,0.279-0.073,0.645,0.161,0.851
	c0.059,0.044,0.073,0.117,0.088,0.191c0.103,0.323,0.279,0.631,0.499,0.895v0.367c0,0.616-0.499,1.115-1.115,1.115H1.672
	c0,0-1.012,0.279-1.672,1.672v0.557c0,0.308,0.249,0.557,0.557,0.557h7.819c0.308,0,0.557-0.249,0.557-0.557v-0.557
	C8.259,14.208,7.232,13.929,7.232,13.929z"/>
</svg>
