<?xml version="1.0" encoding="utf-8"?>
<!-- Generator: Adobe Illustrator 22.1.0, SVG Export Plug-In . SVG Version: 6.00 Build 0)  -->
<svg version="1.1" id="Layer_1" xmlns="http://www.w3.org/2000/svg" xmlns:xlink="http://www.w3.org/1999/xlink" x="0px" y="0px"
	 viewBox="0 0 18 18" style="enable-background:new 0 0 18 18;" xml:space="preserve">
<style type="text/css">
	.st0{fill:none;}
	.st1{fill:#139A48;}
</style>
<g id="desktop_10_">
	<g>
		<path class="st0" d="M1.125,12.25h15.75v-9H1.125V12.25z"/>
		<path class="st1" d="M16.875,2.125H1.125C0.506,2.125,0,2.631,0,3.25v10.125C0,13.994,0.506,14.5,1.125,14.5H6.75
			c0,0.806-0.038,1.875-0.337,2.25H6.187c-0.3,0-0.562,0.244-0.562,0.562c0,0.3,0.244,0.562,0.562,0.562h5.625
			c0.3,0,0.563-0.244,0.563-0.562s-0.244-0.562-0.563-0.562h-0.225c-0.3-0.375-0.338-1.425-0.338-2.25h5.625
			c0.619,0,1.125-0.506,1.125-1.125V3.25C18,2.631,17.494,2.125,16.875,2.125z M16.875,12.25H1.125v-9h15.75V12.25z"/>
	</g>
</g>
</svg>
