<?xml version="1.0" encoding="utf-8"?>
<!-- Generator: Adobe Illustrator 22.1.0, SVG Export Plug-In . SVG Version: 6.00 Build 0)  -->
<svg version="1.1" id="Layer_1" xmlns="http://www.w3.org/2000/svg" xmlns:xlink="http://www.w3.org/1999/xlink" x="0px" y="0px"
	 viewBox="0 0 18 18" style="enable-background:new 0 0 18 18;" xml:space="preserve">
<style type="text/css">
	.st0{fill:#A7B2B1;}
</style>
<path class="st0" d="M9,0C4.029,0,0,4.029,0,9c0,1.964,0.636,3.776,1.704,5.256L7.2,8.76c-0.24-0.6-0.36-1.2-0.36-1.8
	c0-2.28,1.8-4.08,4.08-4.08c0.48,0,0.96,0.12,1.44,0.24L9.72,5.88l2.4,2.4l2.76-2.88c0.12,0.48,0.24,0.96,0.24,1.44
	c0,2.28-1.8,4.08-4.08,4.08c-0.72,0-1.32-0.12-1.8-0.36l-5.633,5.633C5.111,17.323,6.974,18,9,18c4.971,0,9-4.029,9-9
	C18,4.029,13.971,0,9,0z"/>
</svg>
