<?xml version="1.0" encoding="utf-8"?>
<!-- Generator: Adobe Illustrator 22.1.0, SVG Export Plug-In . SVG Version: 6.00 Build 0)  -->
<svg version="1.1" id="Layer_1" xmlns="http://www.w3.org/2000/svg" xmlns:xlink="http://www.w3.org/1999/xlink" x="0px" y="0px"
	 viewBox="0 0 18 18" style="enable-background:new 0 0 18 18;" xml:space="preserve">
<style type="text/css">
	.st0{fill:#656565;}
	.st1{fill:#CBC12D;}
</style>
<g>
	<polygon class="st0" points="8.096,10 9.889,9.623 9.889,7.395 13.503,7.395 13.503,1.988 4.489,1.988 4.489,7.395 8.096,7.395 	
		"/>
	<polygon class="st0" points="14.388,10.988 14.388,10.098 14.388,10.024 14.388,9.198 3.6,9.198 3.6,9.865 3.6,10.098 3.6,10.988 
		0,10.988 0,16.387 8.099,16.387 8.099,10.988 4.5,10.988 4.5,10.098 13.489,10.098 13.489,10.988 9.889,10.988 9.889,16.387 
		17.988,16.387 17.988,10.988 	"/>
</g>
<g>
	<rect x="5.393" y="2.899" class="st1" width="7.2" height="3.593"/>
	<rect x="10.792" y="11.891" class="st1" width="6.303" height="3.6"/>
	<rect x="0.889" y="11.898" class="st1" width="6.31" height="3.593"/>
	<rect x="7.2" y="8.298" class="st1" width="3.597" height="1.8"/>
</g>
</svg>
