<?xml version="1.0" encoding="utf-8"?>
<!-- Generator: Adobe Illustrator 22.1.0, SVG Export Plug-In . SVG Version: 6.00 Build 0)  -->
<svg version="1.1" id="Layer_1" xmlns="http://www.w3.org/2000/svg" xmlns:xlink="http://www.w3.org/1999/xlink" x="0px" y="0px"
	 viewBox="0 0 18 18" style="enable-background:new 0 0 18 18;" xml:space="preserve">
<style type="text/css">
	.st0{fill:#CC2128;}
</style>
<g>
	<path class="st0" d="M9.7,10.306c-0.536,0.041-0.937,0.503-0.897,1.033c0.041,0.529,0.508,0.925,1.044,0.884
		c0.536-0.041,0.937-0.504,0.897-1.033C10.703,10.661,10.236,10.265,9.7,10.306z"/>
	<path class="st0" d="M15.997,9.989l-1.13-0.019c-0.109-0.426-0.272-0.84-0.49-1.233l0.814-0.775
		c0.213-0.204,0.22-0.538,0.015-0.748l-1.201-1.23C13.8,5.773,13.462,5.768,13.249,5.97l-0.814,0.776
		c-0.39-0.23-0.804-0.406-1.23-0.528l0.022-1.116c0.006-0.292-0.23-0.533-0.525-0.538L8.971,4.534
		c-0.296-0.005-0.539,0.228-0.546,0.52L8.404,6.171c-0.431,0.108-0.851,0.27-1.249,0.486L6.371,5.854
		c-0.205-0.21-0.544-0.216-0.757-0.013L4.367,7.029c-0.213,0.203-0.22,0.538-0.014,0.748l0.784,0.803
		C4.903,8.966,4.724,9.375,4.599,9.797l-1.13-0.02c-0.296-0.005-0.54,0.228-0.546,0.52l-0.033,1.71
		c-0.005,0.292,0.229,0.533,0.525,0.538l1.13,0.02c0.108,0.425,0.272,0.84,0.49,1.233l-0.815,0.775
		c-0.213,0.204-0.219,0.539-0.014,0.749l1.2,1.229c0.205,0.21,0.544,0.216,0.757,0.013l0.814-0.776
		c0.39,0.23,0.803,0.406,1.23,0.529l-0.021,1.116c-0.007,0.292,0.229,0.533,0.525,0.538L10.441,18
		c0.296,0.005,0.541-0.227,0.546-0.52l0.021-1.116c0.431-0.108,0.851-0.27,1.25-0.486l0.783,0.803
		c0.206,0.21,0.544,0.216,0.757,0.013l1.247-1.188c0.213-0.203,0.219-0.537,0.014-0.748l-0.783-0.803
		c0.233-0.386,0.412-0.795,0.536-1.216l1.13,0.019c0.296,0.005,0.539-0.228,0.545-0.52l0.034-1.71
		C16.527,10.235,16.293,9.994,15.997,9.989z M11.359,12.96c-0.948,0.904-2.457,0.878-3.37-0.057
		c-0.913-0.935-0.884-2.426,0.064-3.33c0.949-0.905,2.457-0.879,3.37,0.057C12.337,10.566,12.308,12.057,11.359,12.96z"/>
	<path class="st0" d="M14.388,4.397c-0.022-0.289-0.277-0.505-0.569-0.482c-0.292,0.022-0.511,0.275-0.489,0.563
		c0.022,0.289,0.277,0.505,0.569,0.482C14.191,4.938,14.41,4.686,14.388,4.397z"/>
	<path class="st0" d="M17.253,3.742l-0.616-0.01C16.578,3.5,16.489,3.274,16.37,3.059l0.444-0.423
		c0.116-0.111,0.12-0.293,0.008-0.408l-0.655-0.671c-0.112-0.115-0.296-0.118-0.413-0.007L15.31,1.974
		c-0.213-0.125-0.438-0.221-0.671-0.288l0.012-0.609c0.003-0.159-0.125-0.291-0.286-0.293l-0.944-0.016
		c-0.161-0.003-0.294,0.124-0.298,0.283L13.112,1.66c-0.235,0.059-0.464,0.147-0.681,0.265l-0.428-0.438
		c-0.112-0.115-0.297-0.118-0.413-0.007l-0.68,0.648c-0.116,0.111-0.12,0.293-0.008,0.408l0.427,0.438
		c-0.127,0.21-0.225,0.433-0.293,0.663l-0.616-0.011c-0.161-0.003-0.294,0.124-0.297,0.284l-0.005,0.275l0.59,0.01
		c0.242,0.004,0.467,0.102,0.635,0.276c0.166,0.172,0.255,0.398,0.25,0.636l-0.016,0.842c0.276,0.095,0.544,0.21,0.8,0.344
		l0.619-0.59c0.062-0.059,0.132-0.104,0.205-0.142c-0.113-0.061-0.221-0.134-0.315-0.23c-0.498-0.51-0.482-1.323,0.035-1.816
		c0.517-0.493,1.34-0.479,1.838,0.031c0.498,0.51,0.482,1.323-0.035,1.816c-0.155,0.147-0.338,0.244-0.53,0.301
		c0.025,0.021,0.051,0.039,0.074,0.062l1.2,1.229c0.131,0.134,0.213,0.302,0.241,0.482c0.11,0.062,0.249,0.052,0.345-0.039
		l0.68-0.648c0.116-0.11,0.12-0.293,0.008-0.408l-0.427-0.438c0.127-0.21,0.225-0.434,0.292-0.663l0.616,0.011
		c0.161,0.003,0.294-0.124,0.297-0.283l0.018-0.933C17.542,3.876,17.414,3.745,17.253,3.742z"/>
	<path class="st0" d="M5.025,5.46c0.009,0.122,0.049,0.233,0.108,0.331l0.229-0.218c0.335-0.32,0.859-0.326,1.206-0.032
		c0.012-0.065,0.02-0.131,0.014-0.2C6.55,4.916,6.175,4.598,5.745,4.631C5.315,4.664,4.993,5.035,5.025,5.46z"/>
	<path class="st0" d="M3.56,9.03c0.252,0.148,0.518,0.261,0.79,0.354c0.092-0.256,0.203-0.507,0.332-0.748L4.091,8.03
		C3.923,7.859,3.833,7.633,3.837,7.393c0.004-0.24,0.103-0.465,0.278-0.631l0.167-0.159c-0.63-0.753-0.584-1.868,0.142-2.559
		C5.184,3.318,6.395,3.339,7.128,4.09c0.531,0.544,0.66,1.321,0.403,1.985c0.168-0.069,0.338-0.133,0.512-0.186l0.016-0.844
		c0.011-0.494,0.43-0.874,0.918-0.879L9.832,4.18C9.748,3.903,9.641,3.631,9.498,3.372l0.653-0.622
		c0.171-0.163,0.176-0.432,0.012-0.6L9.199,1.163C9.035,0.994,8.763,0.99,8.592,1.152L7.939,1.775
		C7.626,1.591,7.294,1.45,6.952,1.351l0.017-0.896c0.004-0.235-0.184-0.428-0.421-0.432L5.159,0
		C4.922-0.004,4.727,0.183,4.721,0.417L4.704,1.313C4.359,1.4,4.022,1.53,3.702,1.704L3.073,1.059
		C2.909,0.89,2.637,0.886,2.466,1.049L1.465,2.002c-0.171,0.163-0.176,0.432-0.012,0.6l0.629,0.645
		C1.896,3.556,1.752,3.884,1.652,4.223L0.745,4.207C0.508,4.203,0.311,4.39,0.307,4.624L0.281,5.996
		C0.276,6.231,0.464,6.424,0.702,6.428l0.907,0.016c0.087,0.341,0.218,0.674,0.393,0.99L1.348,8.055
		C1.177,8.219,1.172,8.487,1.337,8.656L2.3,9.643c0.125,0.128,0.311,0.161,0.468,0.098C2.845,9.649,2.94,9.574,3.049,9.518
		L3.56,9.03z"/>
</g>
</svg>
