<?xml version="1.0" encoding="utf-8"?>
<!-- Generator: Adobe Illustrator 22.1.0, SVG Export Plug-In . SVG Version: 6.00 Build 0)  -->
<svg version="1.1" id="Layer_1" xmlns="http://www.w3.org/2000/svg" xmlns:xlink="http://www.w3.org/1999/xlink" x="0px" y="0px"
	 viewBox="0 0 18 18" style="enable-background:new 0 0 18 18;" xml:space="preserve">
<style type="text/css">
	.st0{fill:#33A1D9;}
</style>
<g>
	<path class="st0" d="M7.973,9.963c-0.549,0.043-0.96,0.526-0.918,1.079c0.042,0.553,0.52,0.966,1.069,0.923
		c0.549-0.043,0.96-0.526,0.918-1.079C9,10.334,8.522,9.92,7.973,9.963z"/>
	<path class="st0" d="M14.42,9.633l-1.157-0.02c-0.111-0.445-0.278-0.877-0.502-1.288l0.833-0.81
		c0.218-0.213,0.225-0.562,0.015-0.782l-1.229-1.284c-0.21-0.22-0.557-0.226-0.775-0.014l-0.834,0.811
		c-0.399-0.24-0.823-0.424-1.259-0.552l0.022-1.166C9.541,4.222,9.3,3.971,8.998,3.965L7.226,3.935
		C6.923,3.929,6.674,4.172,6.667,4.478L6.645,5.644C6.204,5.756,5.774,5.926,5.366,6.152L4.564,5.313
		C4.354,5.094,4.007,5.088,3.789,5.3L2.512,6.541C2.294,6.753,2.287,7.103,2.497,7.322l0.802,0.839
		c-0.239,0.403-0.422,0.829-0.55,1.27L1.592,9.411C1.29,9.406,1.039,9.649,1.034,9.954L1,11.74
		c-0.006,0.305,0.234,0.556,0.538,0.562l1.157,0.02c0.111,0.444,0.279,0.877,0.501,1.288l-0.834,0.81
		c-0.218,0.213-0.224,0.563-0.014,0.782l1.229,1.284c0.21,0.22,0.557,0.226,0.775,0.014l0.833-0.81
		c0.399,0.24,0.823,0.424,1.26,0.552l-0.022,1.166c-0.007,0.305,0.234,0.557,0.537,0.562L8.732,18
		c0.303,0.005,0.554-0.237,0.559-0.543l0.022-1.166c0.442-0.112,0.871-0.282,1.28-0.508l0.802,0.839
		c0.211,0.22,0.557,0.225,0.776,0.013l1.276-1.241c0.218-0.212,0.225-0.561,0.015-0.781l-0.802-0.839
		c0.238-0.403,0.422-0.83,0.549-1.27l1.158,0.02c0.303,0.005,0.552-0.238,0.558-0.543l0.034-1.786
		C14.964,9.889,14.723,9.638,14.42,9.633z M9.672,12.736c-0.971,0.944-2.516,0.917-3.451-0.06c-0.935-0.977-0.905-2.534,0.066-3.478
		c0.971-0.945,2.516-0.918,3.451,0.06C10.673,10.235,10.643,11.792,9.672,12.736z"/>
	<path class="st0" d="M12.773,3.791c-0.023-0.302-0.284-0.527-0.583-0.504c-0.299,0.023-0.523,0.287-0.501,0.588
		c0.023,0.301,0.284,0.527,0.583,0.504C12.572,4.356,12.796,4.093,12.773,3.791z"/>
	<path class="st0" d="M15.707,3.107l-0.631-0.011c-0.061-0.242-0.152-0.478-0.273-0.703l0.454-0.442
		c0.119-0.116,0.123-0.307,0.008-0.426l-0.67-0.7c-0.114-0.12-0.304-0.123-0.423-0.008L13.717,1.26
		c-0.218-0.131-0.449-0.231-0.687-0.301l0.012-0.636c0.003-0.166-0.128-0.304-0.293-0.307L11.783,0
		c-0.165-0.003-0.301,0.13-0.305,0.296l-0.012,0.636c-0.241,0.061-0.475,0.154-0.697,0.277l-0.438-0.458
		c-0.115-0.12-0.304-0.123-0.423-0.007L9.213,1.421C9.094,1.537,9.09,1.728,9.205,1.847l0.438,0.458
		c-0.13,0.22-0.23,0.452-0.3,0.693L8.711,2.986C8.546,2.983,8.41,3.116,8.407,3.283L8.401,3.57l0.604,0.01
		c0.247,0.004,0.478,0.107,0.65,0.288c0.17,0.18,0.261,0.415,0.256,0.664l-0.016,0.88c0.283,0.099,0.557,0.219,0.82,0.36
		l0.634-0.617c0.064-0.062,0.135-0.108,0.209-0.148c-0.115-0.064-0.226-0.139-0.322-0.24c-0.51-0.533-0.494-1.382,0.036-1.897
		c0.53-0.515,1.372-0.501,1.882,0.032c0.51,0.533,0.494,1.382-0.036,1.897c-0.158,0.154-0.346,0.255-0.543,0.314
		c0.026,0.021,0.053,0.04,0.076,0.065l1.229,1.284c0.134,0.14,0.218,0.315,0.247,0.504c0.112,0.064,0.255,0.054,0.353-0.041
		l0.696-0.677c0.119-0.115,0.122-0.306,0.008-0.426l-0.437-0.457c0.13-0.22,0.23-0.453,0.299-0.693l0.631,0.011
		c0.165,0.003,0.301-0.13,0.304-0.296L16,3.414C16.003,3.247,15.872,3.11,15.707,3.107z"/>
</g>
</svg>
