<?xml version="1.0" encoding="utf-8"?>
<!-- Generator: Adobe Illustrator 22.1.0, SVG Export Plug-In . SVG Version: 6.00 Build 0)  -->
<svg version="1.1" id="Layer_1" xmlns="http://www.w3.org/2000/svg" xmlns:xlink="http://www.w3.org/1999/xlink" x="0px" y="0px"
	 viewBox="0 0 18 18" style="enable-background:new 0 0 18 18;" xml:space="preserve">
<style type="text/css">
	.st0{fill:#FAA61A;}
</style>
<g>
	<path class="st0" d="M8.945,3.473c-0.635,0-1.152,0.518-1.152,1.155v5.493c0,0.637,0.517,1.155,1.152,1.155
		s1.152-0.518,1.152-1.155V4.627C10.097,3.991,9.58,3.473,8.945,3.473z"/>
	<ellipse class="st0" cx="8.945" cy="13.398" rx="1.152" ry="1.155"/>
	<path class="st0" d="M12.678,0H5.322L0,5.29v7.377L5.321,18h7.444L18,12.708V5.29L12.678,0z M16.984,12.288l-4.642,4.693h-6.6
		l-4.725-4.736v-6.53l4.724-4.695h6.519l4.724,4.695V12.288z"/>
</g>
</svg>
