<?xml version="1.0" encoding="utf-8"?>
<!-- Generator: Adobe Illustrator 22.1.0, SVG Export Plug-In . SVG Version: 6.00 Build 0)  -->
<svg version="1.1" id="Layer_1" xmlns="http://www.w3.org/2000/svg" xmlns:xlink="http://www.w3.org/1999/xlink" x="0px" y="0px"
	 viewBox="0 0 18 18" style="enable-background:new 0 0 18 18;" xml:space="preserve">
<style type="text/css">
	.st0{fill:#5EB755;}
</style>
<g>
	<polygon class="st0" points="5.521,6.9 4.102,8.312 8.202,12.404 17.91,2.672 16.546,1.292 8.218,9.58 	"/>
	<path class="st0" d="M15.397,6.422c0.215,0.678,0.327,1.396,0.327,2.138c0,3.917-3.175,7.084-7.084,7.084s-7.084-3.175-7.084-7.084
		c0-3.917,3.175-7.084,7.084-7.084c1.715,0,3.287,0.606,4.515,1.627l1.053-1.061C12.709,0.766,10.77,0,8.648,0
		C3.91,0,0.065,3.845,0.065,8.583s3.845,8.583,8.583,8.583s8.583-3.845,8.583-8.583c0-1.125-0.215-2.202-0.614-3.191L15.397,6.422z"
		/>
</g>
</svg>
