<?xml version="1.0" encoding="utf-8"?>
<!-- Generator: Adobe Illustrator 22.1.0, SVG Export Plug-In . SVG Version: 6.00 Build 0)  -->
<svg version="1.1" id="Layer_1" xmlns="http://www.w3.org/2000/svg" xmlns:xlink="http://www.w3.org/1999/xlink" x="0px" y="0px"
	 viewBox="0 0 18 18" style="enable-background:new 0 0 18 18;" xml:space="preserve">
<style type="text/css">
	.st0{fill:#139A48;}
</style>
<g>
	<path class="st0" d="M8.969,0C4.017,0,0,4.028,0,9s4.017,9,8.977,9s8.969-4.028,8.969-9S13.929,0,8.969,0z M8.962,16.406
		c-4.093,0-7.409-3.325-7.409-7.428s3.316-7.428,7.409-7.428s7.409,3.325,7.409,7.428S13.055,16.406,8.962,16.406z"/>
	<path class="st0" d="M11.532,7.013c0.648,0,1.176-0.529,1.176-1.179s-0.528-1.179-1.176-1.179c-0.648,0-1.176,0.529-1.176,1.179
		C10.356,6.484,10.884,7.013,11.532,7.013z"/>
	<path class="st0" d="M6.211,7.013c0.648,0,1.176-0.529,1.176-1.179S6.859,4.655,6.211,4.655S5.035,5.184,5.035,5.834
		C5.035,6.484,5.562,7.013,6.211,7.013z"/>
	<path class="st0" d="M4.583,10.36c0.008,0.136,0.045,0.242,0.045,0.242s1.002,2.675,4.326,2.743c0,0,3.015,0.189,4.364-2.788
		c0,0,0.03-0.091,0.038-0.204c0-0.008,0-0.008,0-0.015c0-0.008,0-0.008,0-0.015c0-0.121-0.038-0.257-0.158-0.385
		c-0.008-0.008-0.008-0.015-0.015-0.015c-0.045-0.045-0.098-0.083-0.173-0.113l0,0h-0.008c-0.023-0.008-0.098-0.038-0.204-0.038
		c-0.008,0-0.008,0-0.015,0h-0.008c-0.053,0-0.121,0.015-0.181,0.038c-0.03,0.008-0.053,0.023-0.075,0.038
		c-0.008,0.008-0.023,0.015-0.03,0.023c-0.113,0.068-0.204,0.174-0.241,0.31c-0.256,0.506-0.407,0.831-1.146,1.39
		c-0.769,0.574-1.93,0.688-2.141,0.65c0,0-2.231,0.128-3.279-2.063c-0.06-0.159-0.188-0.28-0.354-0.332
		c-0.045-0.015-0.098-0.03-0.151-0.03c-0.008,0-0.015-0.008-0.023-0.008c-0.008,0-0.008,0-0.015,0c-0.068,0-0.143,0.008-0.226,0.038
		c-0.279,0.106-0.332,0.332-0.324,0.514c0,0.008,0,0.008,0,0.015C4.583,10.353,4.583,10.353,4.583,10.36z"/>
</g>
</svg>
