<?xml version="1.0" encoding="utf-8"?>
<!-- Generator: Adobe Illustrator 22.0.0, SVG Export Plug-In . SVG Version: 6.00 Build 0)  -->
<svg version="1.1" id="Layer_1" xmlns="http://www.w3.org/2000/svg" xmlns:xlink="http://www.w3.org/1999/xlink" x="0px" y="0px"
	 viewBox="0 0 17.1 17.1" style="enable-background:new 0 0 17.1 17.1;" xml:space="preserve">
<style type="text/css">
	.st0{display:none;stroke:#FFFFFF;stroke-miterlimit:10;}
	.st1{fill:#FFFFFF;}
</style>
<rect x="-33.6" y="-19.2" class="st0" width="85" height="55.5"/>
<path class="st1" d="M8.7,0.4C4.2,0.4,0.3,4,0.3,8.5s3.7,8.2,8.2,8.2s8.2-3.7,8.2-8.2S13.2,0.4,8.7,0.4z M8,12.9
	c0.1,0.1,0.1,0.1,0.2,0.1s0.2,0,0.3-0.1c0.3-0.2,0.6-0.6,0.9-1l0.3,0.2c-0.4,0.6-0.8,1-1.3,1.4c-0.4,0.3-0.7,0.4-1.1,0.4
	c-0.2,0-0.4-0.1-0.5-0.2c-0.1-0.1-0.2-0.3-0.2-0.5c0-0.2,0.1-0.5,0.2-1L8,8.6c0.2-0.6,0.3-1,0.3-1.1c0-0.1,0-0.2-0.1-0.3
	C8,7.1,7.8,7.1,7.7,7.1c-0.1,0-0.4,0-0.8,0.1V6.9l2.9-0.5l-1.6,5.7C8,12.4,8,12.6,8,12.8C8,12.9,8,12.9,8,12.9z M10.2,4.6
	C10,4.8,10,4.8,9.7,4.8C9.5,4.8,9.2,4.6,9,4.6C9,4.4,8.8,4.1,8.8,3.9C8.8,3.8,9,3.6,9,3.4c0.2-0.1,0.4-0.2,0.6-0.2
	c0.2,0,0.4,0.1,0.6,0.2c0.2,0.2,0.2,0.4,0.2,0.6C10.5,4.1,10.3,4.4,10.2,4.6z"/>
</svg>
