<?xml version="1.0" encoding="utf-8"?>
<!-- Generator: Adobe Illustrator 22.1.0, SVG Export Plug-In . SVG Version: 6.00 Build 0)  -->
<svg version="1.1" id="Layer_1" xmlns="http://www.w3.org/2000/svg" xmlns:xlink="http://www.w3.org/1999/xlink" x="0px" y="0px"
	 viewBox="0 0 18 18" style="enable-background:new 0 0 18 18;" xml:space="preserve">
<style type="text/css">
	.st0{fill:#3BA949;}
	.st1{fill:#BF8955;}
</style>
<path class="st0" d="M17.984,12.016"/>
<g>
	<path class="st1" d="M9,0C4.026,0,0,4.026,0,9s4.026,9,9,9s9-4.026,9-9S13.974,0,9,0z M8.992,16.41
		c-4.104,0-7.426-3.329-7.426-7.426s3.321-7.433,7.426-7.433s7.426,3.329,7.426,7.426S13.097,16.41,8.992,16.41z"/>
</g>
<g>
	<path class="st1" d="M9,6.909c-0.587,0-1.065,0.478-1.065,1.065v5.068c0,0.587,0.478,1.065,1.065,1.065s1.065-0.478,1.065-1.065
		V7.974C10.065,7.394,9.587,6.909,9,6.909z"/>
	<circle class="st1" cx="9" cy="4.958" r="1.065"/>
</g>
</svg>
