<?xml version="1.0" encoding="utf-8"?>
<!-- Generator: Adobe Illustrator 22.1.0, SVG Export Plug-In . SVG Version: 6.00 Build 0)  -->
<svg version="1.1" id="Layer_1" xmlns="http://www.w3.org/2000/svg" xmlns:xlink="http://www.w3.org/1999/xlink" x="0px" y="0px"
	 viewBox="0 0 18 18" style="enable-background:new 0 0 18 18;" xml:space="preserve">
<style type="text/css">
	.st0{fill:#FF2433;}
</style>
<g>
	<path class="st0" d="M12.678,0H5.322L0,5.29v7.377L5.321,18h7.444L18,12.708V5.29L12.678,0z M16.984,12.288l-4.642,4.693h-6.6
		l-4.725-4.736v-6.53L5.741,1.02h6.519l4.724,4.695V12.288z"/>
	<path class="st0" d="M9,8.068L6.202,5.27c-0.258-0.258-0.675-0.258-0.933,0c-0.258,0.258-0.258,0.675,0,0.933L8.067,9l-2.798,2.798
		c-0.258,0.258-0.258,0.675,0,0.933c0.258,0.258,0.675,0.258,0.933,0L9,9.933l2.798,2.798c0.258,0.258,0.675,0.258,0.933,0
		s0.258-0.675,0-0.933L9.933,9l2.798-2.798c0.258-0.258,0.258-0.675,0-0.933c-0.258-0.258-0.675-0.258-0.933,0L9,8.068z"/>
</g>
</svg>
