<?xml version="1.0" encoding="utf-8"?>
<!-- Generator: Adobe Illustrator 22.1.0, SVG Export Plug-In . SVG Version: 6.00 Build 0)  -->
<svg version="1.1" id="Layer_1" xmlns="http://www.w3.org/2000/svg" xmlns:xlink="http://www.w3.org/1999/xlink" x="0px" y="0px"
	 viewBox="0 0 18 18" style="enable-background:new 0 0 18 18;" xml:space="preserve">
<style type="text/css">
	.st0{fill:#FFFFFF;}
	.st1{fill:#33A1D9;}
</style>
<circle class="st0" cx="9" cy="9" r="9"/>
<circle class="st1" cx="9" cy="9" r="8"/>
<g>
	<path class="st0" d="M7.827,11.453v-0.32c0-0.96,0.107-1.6,0.213-1.813c0.107-0.213,0.533-0.64,1.173-1.067
		C9.64,7.933,9.96,7.72,10.067,7.507c0.107-0.213,0.213-0.533,0.213-0.853c0-0.427-0.107-0.747-0.427-0.96
		C9.64,5.48,9.32,5.373,9,5.373c-0.96,0-1.493,0.64-1.6,2.027L5.16,7.08C5.373,5.907,5.8,4.947,6.547,4.307
		c0.64-0.64,1.493-0.96,2.56-0.96s1.92,0.32,2.667,0.96c0.747,0.64,1.067,1.387,1.067,2.347c0,1.173-0.64,2.133-1.813,2.987
		c-0.533,0.32-0.853,0.64-0.96,0.853s-0.213,0.533-0.213,1.067L7.827,11.453L7.827,11.453z M10.387,14.653h-2.56V12.2h2.56V14.653
		L10.387,14.653z"/>
</g>
</svg>
