<?xml version="1.0" encoding="utf-8"?>
<!-- Generator: Adobe Illustrator 22.1.0, SVG Export Plug-In . SVG Version: 6.00 Build 0)  -->
<svg version="1.1" id="Layer_1" xmlns="http://www.w3.org/2000/svg" xmlns:xlink="http://www.w3.org/1999/xlink" x="0px" y="0px"
	 viewBox="0 0 300 300" style="enable-background:new 0 0 300 300;" xml:space="preserve">
<style type="text/css">
	.st0{fill:#3BA949;}
	.st1{fill:#309ED9;}
</style>
<path class="st0" d="M298.667,207.346"/>
<g>
	<path class="st1" d="M150.166,67.311c-44.411,0-55.792,33.864-57.041,50.657h31.643c0,0,1.11-24.149,22.483-24.149h7.494
		c0,0,18.458-0.555,18.458,17.487s-11.797,23.871-11.797,23.871s-25.953,19.291-25.953,39.97v7.772h31.643v-7.772
		c0,0,1.665-9.16,15.544-20.679c13.74-11.519,26.092-23.871,24.426-43.44C205.264,91.46,194.577,67.311,150.166,67.311z"/>
	<rect x="135.177" y="199.851" class="st1" width="31.504" height="31.504"/>
	<path class="st1" d="M149.333,0C66.895,0,0,66.895,0,149.333s66.895,149.333,149.333,149.333s149.333-66.895,149.333-149.333
		S231.772,0,149.333,0z M149.195,272.297c-68.144,0-123.242-55.237-123.242-123.242c0-68.144,55.237-123.242,123.242-123.242
		s123.242,55.237,123.242,123.242S217.199,272.297,149.195,272.297z"/>
</g>
</svg>
