<?xml version="1.0" encoding="utf-8"?>
<!-- Generator: Adobe Illustrator 22.1.0, SVG Export Plug-In . SVG Version: 6.00 Build 0)  -->
<svg version="1.1" id="Layer_1" xmlns="http://www.w3.org/2000/svg" xmlns:xlink="http://www.w3.org/1999/xlink" x="0px" y="0px"
	 viewBox="0 0 18 18" style="enable-background:new 0 0 18 18;" xml:space="preserve">
<style type="text/css">
	.st0{fill:#33A1D9;}
</style>
<g>
	<path class="st0" d="M7.4,12.4v-0.4c0-1.3,0.1-2.2,0.3-2.5C7.8,9.1,8.4,8.6,9.3,8c0.6-0.4,1-0.7,1.2-1c0.1-0.3,0.3-0.7,0.3-1.2
		c0-0.6-0.1-1-0.6-1.3C9.9,4.2,9.4,4,9,4C7.7,4,7,4.9,6.8,6.8L3.7,6.4C4,4.8,4.6,3.4,5.6,2.6c0.9-0.9,2-1.3,3.5-1.3s2.6,0.4,3.7,1.3
		s1.5,1.9,1.5,3.2c0,1.6-0.9,2.9-2.5,4.1c-0.7,0.4-1.2,0.9-1.3,1.2c-0.1,0.3-0.3,0.7-0.3,1.5L7.4,12.4L7.4,12.4z M10.9,16.8H7.4
		v-3.4h3.5L10.9,16.8L10.9,16.8z"/>
</g>
</svg>
