<?xml version="1.0" encoding="utf-8"?>
<!-- Generator: Adobe Illustrator 22.1.0, SVG Export Plug-In . SVG Version: 6.00 Build 0)  -->
<svg version="1.1" id="Layer_1" xmlns="http://www.w3.org/2000/svg" xmlns:xlink="http://www.w3.org/1999/xlink" x="0px" y="0px"
	 viewBox="0 0 18 18" style="enable-background:new 0 0 18 18;" xml:space="preserve">
<style type="text/css">
	.st0{fill:#FA9D1C;}
</style>
<path class="st0" d="M17.984,6V1h-5v2H7.992v0.957v0.031V8H4.977V6.016H0v4.977h4.977V8.988H10v1.189
	c-0.857,0.322-1.258,1.042-1.604,1.807c-0.249-0.217-0.585-0.347-0.954-0.347c-0.802,0-1.474,0.661-1.474,1.474
	c0,0.076,0,0.173,0.011,0.249c-1.106,0.173-1.951,1.138-1.951,2.309C4.027,16.948,5.068,18,6.336,18h7.176
	c1.279,0,2.309-1.041,2.309-2.331c0.022-1.127-0.781-2.07-1.821-2.276c0-0.065,0-0.13,0-0.206C14,11.561,13.068,10,11.073,10
	c-0.031,0-0.055,0.006-0.085,0.006V8H10H8.98V3.988h4.004V6H17.984z M13.996,1.996H17V5h-3.004V1.996z M3.988,9.988H1V7h2.988V9.988
	z"/>
</svg>
