<?xml version="1.0" encoding="UTF-8"?>
<svg id="Layer_2" data-name="Layer 2" xmlns="http://www.w3.org/2000/svg" version="1.1" viewBox="0 0 26 19">
  <defs>
    <style>
      .cls-1 {
        fill: #f99e20;
      }

      .cls-1, .cls-2, .cls-3 {
        stroke-width: 0px;
      }

      .cls-2 {
        fill: #3a3a3a;
      }

      .cls-3 {
        fill: #fff;
      }
    </style>
  </defs>
  <g>
    <path class="cls-1" d="M11.9,14V4c-1.2-.7-2.5-1-3.9-1C3.6,3,0,6.6,0,11s3.6,8,8,8,6.2-2.1,7.4-5h-3.5Z"/>
    <g>
      <rect class="cls-3" x="6.8" y="5.1" width="2.3" height="8.3"/>
      <rect class="cls-3" x="6.8" y="14.5" width="2.3" height="2.3"/>
    </g>
  </g>
  <g>
    <rect class="cls-2" x="13" width="13" height="13"/>
    <path class="cls-3" d="M22.2,3v4.6c0,.8-.2,1.4-.7,1.8-.5.4-1.2.6-2,.6s-1.4-.2-1.9-.6c-.5-.4-.7-1-.7-1.8V3h1.2v4.6c0,.5.1.8.4,1.1s.6.4,1.1.4.9-.1,1.1-.4c.3-.2.4-.6.4-1.1V3h1.2Z"/>
  </g>
</svg>