<?xml version="1.0" encoding="utf-8"?>
<!-- Generator: Adobe Illustrator 22.1.0, SVG Export Plug-In . SVG Version: 6.00 Build 0)  -->
<svg version="1.1" id="Layer_1" xmlns="http://www.w3.org/2000/svg" xmlns:xlink="http://www.w3.org/1999/xlink" x="0px" y="0px"
	 viewBox="0 0 18 18" style="enable-background:new 0 0 18 18;" xml:space="preserve">
<style type="text/css">
	.st0{fill:none;}
	.st1{fill:#139A48;}
</style>
<g id="APPLICATION_x5F_SERVERS_4_">
	<g>
		<g>
			<path class="st0" d="M16.013,7.053H11.75c-0.379,0-0.669,0.3-0.669,0.639v0.02c0,0.339,0.3,0.639,0.669,0.639h4.263
				c0.379,0,0.669-0.3,0.669-0.639v-0.02C16.692,7.353,16.393,7.053,16.013,7.053z"/>
			<path class="st0" d="M16.013,9.17H11.75c-0.379,0-0.669,0.3-0.669,0.639v0.02c0,0.339,0.3,0.639,0.669,0.639h4.263
				c0.379,0,0.669-0.3,0.669-0.639v-0.02C16.692,9.469,16.393,9.17,16.013,9.17z"/>
			<path class="st0" d="M15.554,11.516c-0.489,0-0.859,0.359-0.859,0.819c0,0.449,0.399,0.819,0.859,0.819
				c0.479,0,0.859-0.359,0.859-0.819C16.413,11.875,16.013,11.516,15.554,11.516z"/>
			<path class="st0" d="M16.013,5.097H11.75c-0.379,0-0.669,0.3-0.669,0.639v0.02c0,0.339,0.3,0.639,0.669,0.639h4.263
				c0.379,0,0.669-0.29,0.669-0.639v-0.02C16.692,5.396,16.393,5.097,16.013,5.097z"/>
			<g>
				<path class="st0" d="M16.023,9.18H11.76c-0.369,0-0.669,0.3-0.669,0.639v0.02c0,0.339,0.29,0.639,0.669,0.639h4.263
					c0.369,0,0.669-0.3,0.669-0.639v-0.02C16.692,9.479,16.403,9.18,16.023,9.18z"/>
				<path class="st0" d="M15.554,11.506c-0.479,0-0.859,0.369-0.859,0.819c0,0.459,0.399,0.819,0.859,0.819
					c0.469,0,0.859-0.359,0.859-0.819C16.413,11.865,16.013,11.506,15.554,11.506z"/>
				<path class="st0" d="M16.023,7.053H11.76c-0.369,0-0.669,0.3-0.669,0.639v0.02c0,0.339,0.29,0.639,0.669,0.639h4.263
					c0.369,0,0.669-0.3,0.669-0.639v-0.02C16.692,7.353,16.403,7.053,16.023,7.053z"/>
				<path class="st0" d="M16.023,5.106H11.76c-0.369,0-0.669,0.3-0.669,0.639v0.02c0,0.339,0.29,0.639,0.669,0.639h4.263
					c0.369,0,0.669-0.29,0.669-0.639v-0.02C16.692,5.406,16.403,5.106,16.023,5.106z"/>
				<path class="st1" d="M17.341,3h-6.899c-0.379,0-0.669,0.3-0.669,0.639v7.178v0.23v0.2v0.519c1.607-0.14,1.947,1.258,1.947,1.258
					v4.602h0.729h4.882c0.379,0,0.669-0.3,0.669-0.639V3.639C18,3.3,17.7,3,17.341,3z M15.554,13.143
					c-0.459,0-0.859-0.359-0.859-0.819c0-0.449,0.379-0.819,0.859-0.819c0.459,0,0.859,0.359,0.859,0.819
					C16.413,12.784,16.023,13.143,15.554,13.143z M16.692,9.839c0,0.339-0.3,0.639-0.669,0.639H11.76
					c-0.379,0-0.669-0.3-0.669-0.639v-0.02c0-0.339,0.3-0.639,0.669-0.639h4.263c0.379,0,0.669,0.3,0.669,0.639V9.839z
					 M16.692,7.712c0,0.339-0.3,0.639-0.669,0.639H11.76c-0.379,0-0.669-0.3-0.669-0.639v-0.02c0-0.339,0.3-0.639,0.669-0.639h4.263
					c0.379,0,0.669,0.3,0.669,0.639V7.712z M16.692,5.765c0,0.349-0.3,0.639-0.669,0.639H11.76c-0.379,0-0.669-0.3-0.669-0.639
					v-0.02c0-0.339,0.3-0.639,0.669-0.639h4.263c0.379,0,0.669,0.3,0.669,0.639V5.765z"/>
			</g>
		</g>
	</g>
</g>
<path class="st1" d="M0.09,13.972c0.03,0.07,0.05,0.13,0.07,0.2l1.048,2.586c0.1,0.25,0.18,0.419,0.22,0.499
	c0.05,0.08,0.12,0.17,0.2,0.23c0.08,0.07,0.22,0.1,0.369,0.1c0.12,0,0.22-0.02,0.3-0.07c0.08-0.05,0.15-0.12,0.22-0.18
	c0.05-0.08,0.12-0.18,0.15-0.3c0.05-0.12,0.08-0.22,0.12-0.28l1.048-2.616c0.02-0.07,0.05-0.12,0.07-0.17v2.935
	c0,0.23,0.05,0.399,0.17,0.519c0.12,0.12,0.25,0.18,0.419,0.18s0.3-0.07,0.419-0.18c0.12-0.11,0.15-0.28,0.15-0.519v-1.488
	c0-0.469,0.05-0.819,0.17-1.068c0.12-0.25,0.349-0.369,0.719-0.369c0.18,0,0.319,0.05,0.399,0.15c0.08,0.1,0.13,0.22,0.15,0.379
	c0.02,0.15,0.03,0.369,0.03,0.649v1.747c0,0.23,0.05,0.399,0.15,0.519c0.1,0.12,0.23,0.17,0.399,0.17c0.17,0,0.319-0.05,0.419-0.17
	c0.1-0.12,0.15-0.28,0.15-0.519v-1.448c0-0.469,0.03-0.799,0.12-0.988c0.07-0.15,0.17-0.27,0.3-0.349
	c0.13-0.08,0.27-0.13,0.419-0.13c0.18,0,0.319,0.05,0.399,0.15c0.08,0.1,0.15,0.22,0.17,0.369c0.02,0.15,0.03,0.329,0.03,0.569
	v1.857c0,0.23,0.05,0.399,0.17,0.519c0.1,0.12,0.25,0.18,0.419,0.18s0.319-0.05,0.419-0.17s0.15-0.28,0.15-0.519V14.76
	c0-0.429-0.05-0.739-0.13-0.938c-0.1-0.22-0.27-0.379-0.479-0.499c-0.22-0.12-0.479-0.18-0.789-0.18c-0.25,0-0.499,0.05-0.699,0.17
	c-0.2,0.12-0.419,0.28-0.599,0.499c-0.13-0.22-0.3-0.379-0.479-0.499c-0.2-0.12-0.429-0.17-0.719-0.17
	c-0.27,0-0.499,0.05-0.739,0.17c-0.22,0.1-0.419,0.28-0.619,0.499v-0.1c0-0.18-0.05-0.319-0.15-0.419c-0.1-0.1-0.23-0.15-0.379-0.15
	s-0.28,0.05-0.379,0.17c-0.03,0.03-0.05,0.08-0.08,0.13c-0.02-0.05-0.07-0.1-0.12-0.15c-0.1-0.1-0.22-0.13-0.349-0.13
	c-0.15,0-0.25,0.05-0.329,0.13c-0.07,0.08-0.15,0.23-0.22,0.449l-0.968,2.606l-0.889-2.506c-0.08-0.25-0.17-0.419-0.23-0.529
	c-0.07-0.1-0.2-0.15-0.379-0.15c-0.1,0-0.18,0.02-0.27,0.07c-0.09,0.05-0.15,0.1-0.18,0.18C0.02,13.483,0,13.562,0,13.632
	c0,0.05,0.02,0.1,0.03,0.17C0.04,13.842,0.07,13.902,0.09,13.972z"/>
</svg>
