<?xml version="1.0" encoding="utf-8"?>
<!-- Generator: Adobe Illustrator 22.1.0, SVG Export Plug-In . SVG Version: 6.00 Build 0)  -->
<svg version="1.1" id="Layer_1" xmlns="http://www.w3.org/2000/svg" xmlns:xlink="http://www.w3.org/1999/xlink" x="0px" y="0px"
	 viewBox="0 0 18 18" style="enable-background:new 0 0 18 18;" xml:space="preserve">
<style type="text/css">
	.st0{fill:#33A1D9;}
</style>
<g>
	<path class="st0" d="M15.122,2.648c-0.124,0.023-0.249,0.045-0.362,0.091c-0.084,0.042-0.167,0.084-0.209,0.125
		c-0.084,0.125-0.167,0.167-0.293,0.167c-0.209,0-0.376,0.042-0.418,0.293c-0.042,0.167-0.167,0.293-0.251,0.46
		c-0.042,0.084-0.125,0.125-0.251,0.042c-0.125-0.084-0.335-0.126-0.46-0.251c-0.167-0.167-0.376-0.376-0.418-0.627
		c-0.042-0.335-0.293-0.586-0.293-0.92c0-0.042-0.084-0.126-0.167-0.167c-0.335-0.167-0.711-0.251-1.088-0.125
		c-0.042,0-0.084,0-0.126-0.042C10.66,1.483,10.576,1.4,10.451,1.316c0.084-0.042,0.125-0.042,0.209-0.042
		c0.084-0.042,0.167-0.126,0.251-0.167c0.042-0.042,0.125-0.042,0.167-0.084c0.042-0.042,0.084-0.084,0.125-0.125
		c0.042-0.042,0.042-0.126,0.084-0.126c0.121-0.054,0.237-0.128,0.356-0.197C10.809,0.314,9.921,0.172,9,0.172
		c-2.338,0-4.458,0.915-6.037,2.399h0C3.13,2.404,3.381,2.529,3.548,2.445c0.209-0.084,0.418-0.084,0.627,0
		C4.26,2.487,4.385,2.404,4.552,2.362C4.427,2.278,4.385,2.236,4.301,2.194C4.385,1.902,4.552,1.818,4.845,1.86
		c0.084,0,0.209,0,0.335-0.042c0.042,0,0.084-0.084,0.084-0.126c-0.042,0-0.084-0.042-0.125-0.042c-0.126,0-0.251,0.042-0.418,0.042
		C4.845,1.4,5.222,1.274,5.431,1.4c0.167,0.084,0.376,0.126,0.586,0.209h0.042c0.167-0.209,0.376,0,0.627-0.084
		C6.644,1.651,6.644,1.776,6.602,1.902c0.042-0.042,0.126,0,0.167,0C6.686,2.153,6.686,2.194,6.937,2.278
		C7.021,2.32,7.062,2.362,7.104,2.404C7.021,2.445,6.979,2.529,6.895,2.529C6.811,2.571,6.728,2.571,6.602,2.613
		c0,0.042,0,0.042,0,0.084c0.251,0,0.502,0,0.753,0c0,0,0.042-0.126,0.042-0.251c0.084-0.042,0.084-0.042,0.335,0.251
		c0.167-0.084,0.167-0.167,0.125-0.335c-0.042-0.084,0-0.167,0-0.209c0.084,0.042,0.167,0.042,0.209,0.084
		C8.15,2.278,8.192,2.362,8.276,2.445c0.042,0.042,0.084,0.042,0.167,0.084C8.527,2.571,8.61,2.613,8.694,2.613
		c0,0.042,0,0.042,0,0.084c0.084-0.042,0.167-0.126,0.251-0.167c0-0.042,0-0.042,0-0.084c-0.084,0-0.167-0.042-0.251-0.042
		c-0.209,0-0.335-0.167-0.293-0.335c0-0.125,0.293-0.293,0.376-0.251c0.042,0,0.084,0.084,0.084,0.125c0,0.042,0,0.125,0.042,0.167
		C9.029,1.818,9.28,1.902,9.489,1.86c0.251-0.042,0.418,0.042,0.627,0.167c0.167,0.084,0.377,0.167,0.586,0.209
		c0.167,0.042,0.293,0.084,0.335,0.251c0,0.042,0.042,0.084,0.084,0.084c0.125,0.084,0.293,0.126,0.418,0.167
		c0.084,0.042,0.209,0.042,0.125,0.167c-0.042,0.084-0.209,0.125-0.293,0.125c-0.084,0-0.167-0.084-0.251-0.084
		c0.084,0.125,0.167,0.251,0.293,0.376c-0.377,0.125-0.669,0-0.962-0.084c-0.167-0.042-0.335-0.042-0.502-0.084
		c-0.042,0-0.126-0.042-0.167-0.084c0.042-0.042,0.084-0.167,0.125-0.167c0.209,0.042,0.293-0.126,0.418-0.293
		C10.2,2.655,10.074,2.696,9.949,2.738c0.084-0.251,0.042-0.335-0.167-0.335c-0.126,0-0.251,0-0.377,0.042
		c0.167,0.251,0.167,0.251-0.209,0.46C9.28,2.989,9.363,3.031,9.447,3.115C9.489,3.157,9.489,3.24,9.531,3.282
		c-0.042,0-0.126,0-0.167,0c-0.125,0-0.251,0-0.418-0.042L8.903,3.157C8.778,3.198,8.694,3.198,8.568,3.24
		c-0.251,0.042-0.544,0.418-0.46,0.628C8.15,3.993,8.192,4.119,8.359,4.077c0.084,0,0.167,0.042,0.209,0.084
		c0.125,0.042,0.251,0.126,0.335,0.084c0.293-0.084,0.418,0.167,0.586,0.335c0.042,0.042,0,0.084,0.042,0.167
		C9.572,4.788,9.614,4.83,9.614,4.872C9.656,4.83,9.698,4.788,9.698,4.746c0-0.126-0.042-0.251-0.084-0.418
		c0.042,0,0.084,0.042,0.126,0c0.084,0,0.167-0.042,0.167-0.084c0.042-0.042,0-0.167-0.042-0.209
		C9.656,3.868,9.782,3.659,9.823,3.491c0-0.042,0.126-0.125,0.209-0.084c0.251,0.042,0.544,0.125,0.795,0.167l-0.042,0.042
		c0.042,0.084,0.042,0.209,0.084,0.251c0.125,0.084,0.251,0.042,0.335-0.084c0.084-0.125,0.167-0.084,0.251,0
		c0.084,0.125,0.167,0.251,0.251,0.376c0.042,0.042,0.042,0.084,0.084,0.126c0.209,0.125,0.418,0.251,0.627,0.376
		c-0.042,0.084-0.042,0.126-0.042,0.167c-0.084,0.167-0.125,0.293,0.126,0.377c0.084,0,0.125,0.167,0.209,0.251l-0.042,0.042
		c-0.209,0-0.46,0-0.711,0c0.084-0.209,0.126-0.335,0.209-0.502c-0.209,0.084-0.46,0.042-0.544,0.293c0,0-0.126,0-0.167-0.042
		c-0.084-0.126-0.209-0.126-0.335-0.084c-0.293,0.042-0.293,0.084-0.335,0.293c0.084-0.042,0.167-0.042,0.251-0.084
		c0.251-0.084,0.335-0.042,0.335,0.209c0.125,0,0.209,0.167,0.376,0.084c0,0,0.084,0.042,0.084,0.084
		c0,0.042-0.042,0.126-0.084,0.126c-0.167,0.084-0.376,0.125-0.544,0.209c-0.042,0-0.125,0-0.125-0.042
		c-0.125-0.167-0.251-0.084-0.376-0.042c-0.126,0.042-0.084,0.167-0.042,0.293c0.042,0.126-0.042,0.167-0.126,0.126
		c-0.209-0.042-0.293,0.042-0.376,0.209c-0.042,0.125-0.251,0.251-0.167,0.46c0,0.042-0.042,0.084-0.084,0.125
		C9.74,7.382,9.572,7.507,9.405,7.675C9.321,7.758,9.28,7.842,9.363,8.009C9.405,8.135,9.447,8.26,9.447,8.428
		c0,0.042-0.042,0.084-0.084,0.167C9.321,8.553,9.28,8.553,9.238,8.511C9.196,8.428,9.112,8.344,9.07,8.26
		C9.029,7.967,8.527,7.926,8.359,8.009C8.276,8.051,8.192,8.051,8.108,8.051C7.899,8.009,7.564,8.093,7.481,8.302
		C7.439,8.428,7.439,8.553,7.439,8.72c-0.042,0.293,0,0.544,0.251,0.711c0.042,0.042,0.167,0.084,0.167,0.084
		c0.084-0.084,0.293,0,0.335-0.209c0-0.042,0.125-0.125,0.167-0.167c0.084-0.042,0.209,0,0.251,0.042c0.042,0.042,0,0.167,0,0.251
		C8.568,9.599,8.568,9.724,8.527,9.934c0.126,0,0.209,0,0.251,0c0.209-0.042,0.376,0.084,0.335,0.293
		c0,0.125-0.042,0.209-0.042,0.335c0,0.052,0.011,0.089,0.024,0.124c0.02,0.014,0.039,0.028,0.059,0.043
		c0.031,0.031,0.049,0.046,0.073,0.069c0.062,0.012,0.136,0.006,0.22-0.028c0.042-0.042,0.167-0.042,0.209,0
		c0.167,0.125,0.209,0.042,0.293-0.084c0.125-0.167,0.293-0.293,0.502-0.335c0,0.126-0.042,0.209-0.042,0.335
		c0.125-0.167,0.209-0.293,0.418-0.125c0.084,0.084,0.293,0,0.46,0c0.084,0,0.126,0,0.209,0c0.084,0,0.126,0.042,0.209,0.042
		c-0.042,0.167,0,0.251,0.209,0.335c0.084,0.042,0.126,0.125,0.167,0.167c0.042,0.042,0.125,0.084,0.167,0.042
		c0.167-0.084,0.251,0,0.335,0.084c0.126,0.167,0.293,0.335,0.377,0.544c0.042,0.042,0,0.126,0,0.209
		c0.251,0.126,0.544,0.251,0.795,0.377c0.042,0,0.084,0.042,0.126,0.042c0.125,0,0.251,0,0.335,0.126
		c0.042,0.042,0.126,0.084,0.209,0.125c0.251,0.126,0.335,0.293,0.209,0.544c-0.084,0.209-0.251,0.376-0.335,0.586
		c-0.042,0.126-0.125,0.251-0.125,0.377c0,0.376-0.126,0.669-0.293,0.962c-0.042,0.042-0.084,0.042-0.167,0.084
		c-0.167,0.084-0.335,0.126-0.502,0.209c-0.126,0.084-0.209,0.167-0.126,0.335c0,0.042,0,0.125-0.042,0.167
		c-0.126,0.209-0.335,0.335-0.418,0.586c-0.084,0.209-0.251,0.376-0.502,0.335c-0.042,0.126-0.084,0.209-0.126,0.293
		c0.126,0.084,0,0.125-0.167,0.125c-0.144,0-0.22,0.038-0.214,0.179c3.598-1.115,6.211-4.469,6.211-8.433
		C17.828,6.503,16.788,4.254,15.122,2.648z"/>
	<path class="st0" d="M9.095,10.685c-0.145-0.104-0.275-0.196-0.275-0.417c0-0.042-0.126-0.126-0.167-0.126
		c-0.209-0.042-0.377-0.125-0.544-0.293C8.025,9.766,7.941,9.724,7.815,9.808c-0.042,0.042-0.125,0-0.167,0
		c-0.251,0-0.46-0.084-0.544-0.376c0-0.042-0.042-0.042-0.084-0.084C6.77,9.306,6.77,9.139,6.686,8.93
		c-0.167-0.335-0.418-0.628-0.669-0.92L5.975,8.051C6.1,8.218,6.184,8.428,6.309,8.595c0.042,0.042,0.042,0.084,0.042,0.167
		c-0.042,0-0.126,0-0.167-0.042C6.1,8.637,6.058,8.553,5.975,8.511C5.891,8.428,5.807,8.344,5.724,8.26L5.682,8.218
		c0.084-0.209-0.126-0.335-0.167-0.502C5.431,7.465,5.347,7.214,5.013,7.173c-0.042,0-0.125-0.042-0.125-0.084
		C4.803,6.712,4.511,6.42,4.594,6.001c0.042-0.084,0-0.209,0-0.293C4.552,5.499,4.511,5.29,4.26,5.165
		C4.176,5.123,4.176,5.039,4.134,4.955C4.092,4.872,4.05,4.746,3.967,4.663C3.841,4.704,3.758,4.788,3.758,4.788
		C3.674,4.746,3.59,4.663,3.59,4.579C3.548,4.412,3.507,4.244,3.297,4.202L3.256,4.161C3.214,3.868,2.963,3.868,2.754,3.784
		c-0.228-0.076-0.488-0.12-0.723-0.19C0.87,5.089,0.172,6.961,0.172,9c0,4.876,3.953,8.828,8.828,8.828
		c0.447,0,0.882-0.044,1.311-0.108c0.015-0.138,0.016-0.281,0.057-0.424c0.042-0.125,0-0.293,0.042-0.418
		c0-0.084,0.042-0.167,0.084-0.251c0.042-0.167,0.042-0.335,0.084-0.502c0.042-0.125,0.084-0.209,0.126-0.335
		c0-0.042,0.042-0.084,0.042-0.126c0-0.293,0-0.544,0.042-0.837c0.042-0.335-0.042-0.586-0.335-0.669
		c-0.377-0.125-0.46-0.46-0.586-0.795c-0.084-0.209-0.125-0.502-0.335-0.627c0,0-0.042-0.042-0.042-0.084
		c0.084-0.335-0.125-0.753,0.251-1.004c0.251-0.167,0.251-0.544-0.042-0.837c-0.257,0.147-0.297,0.154-0.471-0.014
		C9.166,10.786,9.12,10.751,9.095,10.685z"/>
	<path class="st0" d="M5.305,2.445C5.222,2.32,5.138,2.236,5.054,2.111C4.971,2.153,4.887,2.194,4.762,2.278
		c0.167,0.125,0.335,0.167,0.502,0.251C5.264,2.487,5.305,2.487,5.305,2.445z"/>
	<polygon class="st0" points="11.329,17.505 11.331,17.507 11.337,17.505 	"/>
	<path class="st0" d="M9.614,6.127c0.167-0.084,0.293-0.167,0.46-0.293C9.782,5.792,9.656,5.876,9.614,6.127z"/>
	<path class="st0" d="M6.268,1.86c-0.125,0-0.209-0.042-0.335,0c-0.125,0-0.251,0.042-0.335-0.084c0-0.042-0.126,0-0.167,0v0.042
		C5.766,1.985,6.1,2.027,6.268,1.86z"/>
	<path class="st0" d="M8.819,6.252c0-0.125,0-0.209,0.042-0.335c0.042-0.126,0.084-0.251,0.251-0.251
		c0.167,0,0.167,0.125,0.167,0.251c0,0.042,0.042,0.084,0.084,0.167C9.405,5.876,9.447,5.75,9.489,5.667l0.042-0.042
		c-0.126,0-0.251,0-0.377-0.042c-0.125,0-0.251-0.084-0.376,0.084C8.694,5.75,8.736,6.127,8.819,6.252z"/>
	<path class="st0" d="M8.359,5.332c0.251,0,0.46,0,0.669,0C8.819,5.039,8.736,5.039,8.359,5.332z"/>
</g>
</svg>
