<?xml version="1.0" encoding="utf-8"?>
<!-- Generator: Adobe Illustrator 22.1.0, SVG Export Plug-In . SVG Version: 6.00 Build 0)  -->
<svg version="1.1" id="Layer_1" xmlns="http://www.w3.org/2000/svg" xmlns:xlink="http://www.w3.org/1999/xlink" x="0px" y="0px"
	 viewBox="0 0 18 18" style="enable-background:new 0 0 18 18;" xml:space="preserve">
<style type="text/css">
	.st0{fill:#FFFFFF;}
	.st1{fill:#A7B2B1;}
</style>
<circle class="st0" cx="9" cy="9" r="9"/>
<circle class="st1" cx="9" cy="9" r="7.5"/>
<path class="st0" d="M11.6,8.4l-2-2l2.2-2.3C11.4,4,11,3.9,10.6,3.9c-1.9,0-3.4,1.5-3.4,3.4c0,0.5,0.1,1,0.3,1.5l-4.6,4.6
	c0.4,0.6,1,1.2,1.6,1.6l4.7-4.7c0.4,0.2,0.9,0.3,1.5,0.3c1.9,0,3.4-1.5,3.4-3.4c0-0.4-0.1-0.8-0.2-1.2L11.6,8.4z"/>
</svg>
