<?xml version="1.0" encoding="utf-8"?>
<!-- Generator: Adobe Illustrator 22.1.0, SVG Export Plug-In . SVG Version: 6.00 Build 0)  -->
<svg version="1.1" id="Layer_1" xmlns="http://www.w3.org/2000/svg" xmlns:xlink="http://www.w3.org/1999/xlink" x="0px" y="0px"
	 viewBox="0 0 18 18" style="enable-background:new 0 0 18 18;" xml:space="preserve">
<style type="text/css">
	.st0{fill:#CC2128;}
</style>
<g id="SERVER">
	<path class="st0" d="M13.275,0H4.561C4.168,0,3.836,0.317,3.836,0.725v16.537c0,0.393,0.317,0.725,0.725,0.725h8.714
		c0.393,0,0.725-0.317,0.725-0.725V0.71C14,0.317,13.683,0,13.275,0L13.275,0z M11.644,13.215c-0.559,0-1.012-0.453-1.012-1.012
		c0-0.559,0.453-1.012,1.012-1.012s1.012,0.453,1.012,1.012C12.656,12.762,12.203,13.215,11.644,13.215L11.644,13.215z
		 M12.611,7.702c0,0.393-0.317,0.725-0.725,0.725h-5.92c-0.393,0-0.725-0.317-0.725-0.725v-0.03c0-0.393,0.317-0.725,0.725-0.725
		h5.905c0.393,0,0.725,0.317,0.725,0.725L12.611,7.702L12.611,7.702z M12.611,5.316c0,0.393-0.317,0.725-0.725,0.725h-5.92
		c-0.393,0-0.725-0.317-0.725-0.725v-0.03c0-0.393,0.317-0.725,0.725-0.725h5.905c0.393,0,0.725,0.317,0.725,0.725L12.611,5.316
		L12.611,5.316z M12.611,3.096c0,0.393-0.317,0.725-0.725,0.725h-5.92c-0.393,0-0.725-0.317-0.725-0.725v-0.03
		c0-0.393,0.317-0.725,0.725-0.725h5.905c0.393,0,0.725,0.317,0.725,0.725L12.611,3.096L12.611,3.096z"/>
</g>
</svg>
