<?xml version="1.0" encoding="utf-8"?>
<!-- Generator: Adobe Illustrator 22.1.0, SVG Export Plug-In . SVG Version: 6.00 Build 0)  -->
<svg version="1.1" id="Layer_1" xmlns="http://www.w3.org/2000/svg" xmlns:xlink="http://www.w3.org/1999/xlink" x="0px" y="0px"
	 viewBox="0 0 18 18" style="enable-background:new 0 0 18 18;" xml:space="preserve">
<style type="text/css">
	.st0{fill:#CBC12D;}
</style>
<g>
	<path class="st0" d="M8.992,7.715C8.284,7.77,7.754,8.388,7.808,9.096c0.054,0.708,0.671,1.237,1.378,1.182
		c0.708-0.055,1.238-0.673,1.184-1.381C10.316,8.189,9.699,7.66,8.992,7.715z"/>
	<path class="st0" d="M17.306,7.292l-1.492-0.025c-0.143-0.569-0.359-1.123-0.647-1.649l1.075-1.036c0.281-0.272,0.29-0.719,0.019-1
		l-1.585-1.644c-0.271-0.281-0.718-0.289-0.999-0.018l-1.075,1.038c-0.515-0.307-1.061-0.542-1.624-0.706l0.029-1.492
		c0.007-0.391-0.304-0.713-0.693-0.719L8.029,0C7.638-0.007,7.316,0.304,7.308,0.695L7.28,2.188
		c-0.569,0.144-1.123,0.361-1.649,0.65L4.595,1.764C4.325,1.483,3.877,1.476,3.596,1.747L1.95,3.335
		c-0.281,0.271-0.29,0.719-0.019,1l1.035,1.074C2.658,5.924,2.421,6.471,2.256,7.034L0.764,7.008
		c-0.39-0.007-0.713,0.305-0.72,0.696L0,9.989c-0.007,0.39,0.302,0.712,0.693,0.719l1.492,0.026
		c0.143,0.569,0.359,1.123,0.647,1.649l-1.076,1.036c-0.281,0.272-0.289,0.72-0.019,1.001l1.585,1.643
		c0.271,0.281,0.718,0.289,1,0.017l1.075-1.037c0.515,0.307,1.061,0.542,1.624,0.706l-0.028,1.492
		c-0.009,0.391,0.302,0.712,0.693,0.719L9.97,18c0.391,0.007,0.714-0.304,0.721-0.695l0.028-1.492c0.57-0.144,1.123-0.361,1.65-0.65
		l1.034,1.073c0.272,0.281,0.718,0.288,1,0.017l1.646-1.589c0.282-0.271,0.29-0.718,0.019-1l-1.034-1.073
		c0.307-0.516,0.544-1.063,0.708-1.626l1.493,0.026c0.391,0.007,0.712-0.304,0.72-0.695L18,8.012
		C18.007,7.62,17.697,7.298,17.306,7.292z M11.183,11.263c-1.252,1.208-3.245,1.174-4.45-0.076c-1.205-1.25-1.167-3.243,0.085-4.451
		c1.253-1.209,3.245-1.175,4.45,0.076C12.473,8.062,12.435,10.055,11.183,11.263z"/>
</g>
</svg>
