<?xml version="1.0" encoding="utf-8"?>
<!-- Generator: Adobe Illustrator 22.1.0, SVG Export Plug-In . SVG Version: 6.00 Build 0)  -->
<svg version="1.1" id="Layer_1" xmlns="http://www.w3.org/2000/svg" xmlns:xlink="http://www.w3.org/1999/xlink" x="0px" y="0px"
	 viewBox="0 0 18 18" style="enable-background:new 0 0 18 18;" xml:space="preserve">
<style type="text/css">
	.st0{fill:#FFFFFF;}
	.st1{fill:#F99E20;}
</style>
<circle class="st0" cx="9" cy="9" r="9"/>
<g>
	<path class="st1" d="M16.434,8.063l-1.313-0.124c-0.088-0.511-0.241-1.014-0.46-1.497l1.016-0.84
		c0.266-0.22,0.304-0.614,0.084-0.88l-1.287-1.557c-0.22-0.266-0.613-0.304-0.879-0.084l-1.017,0.841
		c-0.433-0.306-0.899-0.551-1.384-0.734l0.125-1.313c0.032-0.344-0.22-0.649-0.563-0.681L8.744,1.003
		C8.401,0.97,8.096,1.222,8.063,1.566L7.938,2.879C7.428,2.967,6.924,3.12,6.442,3.34L5.601,2.322
		c-0.22-0.266-0.614-0.303-0.879-0.083L3.165,3.526c-0.266,0.22-0.304,0.614-0.083,0.88l0.84,1.017
		C3.616,5.856,3.371,6.321,3.188,6.807L1.875,6.681c-0.344-0.032-0.649,0.22-0.681,0.564L1.003,9.256
		C0.97,9.599,1.222,9.904,1.566,9.937l1.313,0.125c0.088,0.511,0.242,1.014,0.46,1.497l-1.017,0.84
		c-0.266,0.22-0.303,0.615-0.083,0.881l1.287,1.557c0.22,0.266,0.614,0.304,0.88,0.084l1.016-0.84
		c0.433,0.306,0.899,0.551,1.384,0.734l-0.124,1.313c-0.034,0.344,0.219,0.648,0.563,0.681l2.01,0.191
		c0.344,0.033,0.649-0.219,0.682-0.563l0.124-1.313c0.511-0.088,1.014-0.241,1.497-0.46l0.84,1.017
		c0.22,0.266,0.614,0.303,0.88,0.083l1.557-1.287c0.266-0.219,0.303-0.613,0.083-0.879l-0.84-1.017
		c0.305-0.433,0.55-0.899,0.732-1.384l1.314,0.125c0.344,0.033,0.648-0.219,0.681-0.563l0.192-2.011
		C17.03,8.4,16.778,8.095,16.434,8.063z M11.098,11.537c-1.401,1.159-3.477,0.962-4.635-0.44c-1.158-1.401-0.961-3.477,0.44-4.635
		c1.402-1.16,3.477-0.962,4.635,0.44C12.696,8.303,12.499,10.379,11.098,11.537z"/>
	<circle class="st1" cx="9" cy="9" r="1.333"/>
</g>
</svg>
