<?xml version="1.0" encoding="utf-8"?>
<!-- Generator: Adobe Illustrator 22.1.0, SVG Export Plug-In . SVG Version: 6.00 Build 0)  -->
<svg version="1.1" id="Layer_1" xmlns="http://www.w3.org/2000/svg" xmlns:xlink="http://www.w3.org/1999/xlink" x="0px" y="0px"
	 viewBox="0 0 18 18" style="enable-background:new 0 0 18 18;" xml:space="preserve">
<style type="text/css">
	.st0{fill:#FA9D1C;}
</style>
<g>
	<path class="st0" d="M8.969,0C4.017,0,0,4.028,0,9s4.017,9,8.977,9s8.969-4.028,8.969-9S13.929,0,8.969,0z M8.962,16.406
		c-4.093,0-7.409-3.325-7.409-7.428s3.316-7.428,7.409-7.428c4.093,0,7.409,3.325,7.409,7.428S13.055,16.406,8.962,16.406z"/>
	<path class="st0" d="M11.532,7.013c0.648,0,1.176-0.529,1.176-1.179c0-0.65-0.528-1.179-1.176-1.179
		c-0.648,0-1.176,0.529-1.176,1.179C10.356,6.484,10.884,7.013,11.532,7.013z"/>
	<path class="st0" d="M6.211,7.013c0.648,0,1.176-0.529,1.176-1.179c0-0.65-0.528-1.179-1.176-1.179S5.035,5.184,5.035,5.834
		C5.035,6.484,5.562,7.013,6.211,7.013z"/>
	<rect x="4" y="10" class="st0" width="10" height="2"/>
</g>
</svg>
