<?xml version="1.0" encoding="utf-8"?>
<!-- Generator: Adobe Illustrator 22.1.0, SVG Export Plug-In . SVG Version: 6.00 Build 0)  -->
<svg version="1.1" id="Layer_1" xmlns="http://www.w3.org/2000/svg" xmlns:xlink="http://www.w3.org/1999/xlink" x="0px" y="0px"
	 viewBox="0 0 18 18" style="enable-background:new 0 0 18 18;" xml:space="preserve">
<style type="text/css">
	.st0{fill:#71BD6B;}
</style>
<g>
	<path class="st0" d="M17.934,10.258c0-0.64-0.384-1.201-0.929-1.473C17.421,8.497,17.71,8,17.71,7.456
		c0-0.897-0.737-1.633-1.633-1.633h-2.882c0.144-0.432,0.272-0.881,0.32-1.329l0.24-1.825c0.048-0.464-0.064-0.929-0.352-1.297
		c-0.288-0.352-0.705-0.608-1.169-0.673c-0.753-0.096-1.441,0.432-1.537,1.185L10.44,3.837C8.871,5.438,6.645,6.575,4.275,7.04
		V6.319H0v10.072h4.275v-0.897l1.377,0.801c1.185,0.689,2.53,1.057,3.891,1.057h2.338c0.048,0,0.112-0.016,0.16-0.032
		c0.048,0,0.128,0.016,0.176,0.016h2.466c0.897,0,1.633-0.737,1.633-1.633c0-0.352-0.128-0.705-0.32-0.977
		c0.737-0.16,1.281-0.801,1.281-1.601c0-0.528-0.256-0.993-0.624-1.281C17.389,11.683,17.934,11.043,17.934,10.258z M3.555,15.654
		H0.721V7.024h2.834V15.654z M16.06,6.543c0.496,0,0.913,0.416,0.913,0.913s-0.416,0.913-0.913,0.913h-3.747
		c-0.496,0-0.913-0.416-0.913-0.913c0-0.496,0.416-0.913,0.913-0.913H16.06z M10.616,15.686c0,0.352,0.112,0.689,0.304,0.945H9.575
		c-1.265,0-2.482-0.32-3.555-0.945l-1.745-1.025V7.76c2.61-0.464,5.028-1.713,6.757-3.523c0.048-0.048,0.096-0.128,0.096-0.192
		l0.256-2.066c0.016-0.176,0.112-0.32,0.256-0.432c0.144-0.112,0.304-0.16,0.48-0.128c0.576,0.064,0.993,0.608,0.897,1.185
		l-0.24,1.825c-0.064,0.48-0.192,0.977-0.384,1.425h-0.128c-0.897,0-1.585,0.737-1.633,1.633c-0.032,0.624,0.272,1.169,0.304,1.185
		c-0.496,1.089-1.377,2.338-2.85,2.93c-0.176,0.064-0.272,0.288-0.192,0.464c0.048,0.144,0.176,0.208,0.32,0.208
		c0.032,0,0.096,0,0.128-0.016c1.137-0.448,1.937-1.217,2.53-2.034c0,0.032,0,0.048,0,0.096c0,0.56,0.288,1.057,0.721,1.345
		c-0.608,0.24-1.025,0.833-1.025,1.505c0,0.528,0.256,0.993,0.624,1.281C10.856,14.726,10.616,15.174,10.616,15.686z M14.699,16.599
		h-2.466c-0.496,0-0.913-0.416-0.913-0.913c0-0.496,0.416-0.913,0.913-0.913h2.466c0.496,0,0.913,0.416,0.913,0.913
		C15.628,16.199,15.212,16.599,14.699,16.599z M15.676,14.053h-0.945h-2.498h-0.016c-0.496,0-0.913-0.416-0.913-0.913
		c0-0.496,0.416-0.913,0.913-0.913h3.427c0.496,0,0.913,0.416,0.913,0.913C16.589,13.637,16.172,14.053,15.676,14.053z M16.3,11.203
		h-3.763c-0.496,0-0.913-0.416-0.913-0.913c0-0.496,0.416-0.913,0.913-0.913h3.747c0.496,0,0.913,0.416,0.913,0.913
		C17.213,10.786,16.797,11.203,16.3,11.203z"/>
</g>
</svg>
