<?xml version="1.0" encoding="UTF-8"?>
<svg id="Layer_1" data-name="Layer 1" xmlns="http://www.w3.org/2000/svg" viewBox="0 0 18 18">
  <defs>
    <style>
      .cls-1 {
        fill: #cbc12d;
      }

      .cls-2 {
        fill: #fff;
      }
    </style>
  </defs>
  <circle class="cls-1" cx="9" cy="9" r="9"/>
  <g>
    <path class="cls-2" d="M10,5.3c.77,0,1.4-.63,1.4-1.4s-.63-1.4-1.4-1.4-1.4.63-1.4,1.4.63,1.4,1.4,1.4Z"/>
    <path class="cls-2" d="M10.3,13.4l-.3.3c-.4.4-.61.54-.82.53-.34-.08-.24-.51-.18-.73l.34-1.23,1.66-6.07-4.2.7v.4h1.6l-.42,1.66-1.18,4.24c-.2.7-.3,1.1-.3,1.3,0,.3,0,.8.6,1.1.8.4,1.8-.2,2.6-.8.8-.7.8-.8,1.5-1.6l-.5-.3s-.3.4-.4.5Z"/>
  </g>
</svg>