<?xml version="1.0" encoding="utf-8"?>
<!-- Generator: Adobe Illustrator 22.0.0, SVG Export Plug-In . SVG Version: 6.00 Build 0)  -->
<svg version="1.1" id="Layer_1" xmlns="http://www.w3.org/2000/svg" xmlns:xlink="http://www.w3.org/1999/xlink" x="0px" y="0px"
	 viewBox="0 0 17.1 17.1" style="enable-background:new 0 0 17.1 17.1;" xml:space="preserve">
<style type="text/css">
	.st0{display:none;stroke:#FFFFFF;stroke-miterlimit:10;}
	.st1{fill:#FFFFFF;}
</style>
<rect x="-33.6" y="-19.2" class="st0" width="85" height="55.5"/>
<path class="st1" d="M8.8,0.4C4.2,0.4,0.3,4,0.3,8.5s3.7,8.2,8.2,8.2s8.2-3.7,8.2-8.2S13.2,0.4,8.8,0.4z M9.8,13.9H7.5v-2.3h2.4
	V13.9z M10.5,9.1C10,9.4,9.7,9.8,9.5,9.9c-0.1,0.2-0.2,0.5-0.2,1l-1.9-0.1v-0.3c0-0.9,0.1-1.5,0.2-1.7c0.1-0.2,0.5-0.6,1.1-1
	c0.4-0.3,0.7-0.5,0.8-0.7c0.1-0.2,0.2-0.5,0.2-0.8c0-0.4-0.1-0.7-0.4-0.9C9.2,5.3,8.8,5.1,8.5,5.1C7.7,5.1,7.2,5.8,7,7.1L5,6.8
	c0.2-1.1,0.6-2,1.3-2.6c0.6-0.6,1.4-0.9,2.4-0.9s1.8,0.3,2.5,0.9c0.7,0.6,1,1.3,1,2.2C12.2,7.4,11.5,8.4,10.5,9.1z"/>
</svg>
