<?xml version="1.0" encoding="utf-8"?>
<!-- Generator: Adobe Illustrator 22.1.0, SVG Export Plug-In . SVG Version: 6.00 Build 0)  -->
<svg version="1.1" id="Layer_1" xmlns="http://www.w3.org/2000/svg" xmlns:xlink="http://www.w3.org/1999/xlink" x="0px" y="0px"
	 viewBox="0 0 18 18" style="enable-background:new 0 0 18 18;" xml:space="preserve">
<style type="text/css">
	.st0{fill:none;}
	.st1{fill:#CAC02D;}
</style>
<g>
	<path class="st0" d="M10.2,14.4L10.2,14.4L10.2,14.4L10.2,14.4z"/>
	<circle class="st1" cx="10.1" cy="3" r="1.7"/>
	<path class="st1" d="M10.7,13.9c-0.2,0.2-0.4,0.4-0.5,0.5c-0.4,0.4-0.7,0.6-1,0.5C9,14.8,8.9,14.4,9,14.1c0-0.1,0-0.3,0.2-0.8
		l2.1-7.7L6.4,6.4v0.4c0.1,0,0.3-0.1,0.6-0.1c0,0,0.9-0.1,1.2,0.1l0.1,0.1c0,0.1,0,0.2,0,0.2c0,0.1-0.1,0.7-0.4,1.6l-1.4,5.1
		c-0.2,0.8-0.3,1.3-0.3,1.6c0,0.3-0.1,1,0.7,1.3c1,0.4,2.1-0.2,3-0.9c1-0.8,1-0.9,1.8-1.9l-0.6-0.4C11.1,13.5,10.8,13.8,10.7,13.9z"
		/>
</g>
</svg>
