<?xml version="1.0" encoding="utf-8"?>
<!-- Generator: Adobe Illustrator 22.1.0, SVG Export Plug-In . SVG Version: 6.00 Build 0)  -->
<svg version="1.1" id="Layer_1" xmlns="http://www.w3.org/2000/svg" xmlns:xlink="http://www.w3.org/1999/xlink" x="0px" y="0px"
	 viewBox="0 0 18 18" style="enable-background:new 0 0 18 18;" xml:space="preserve">
<style type="text/css">
	.st0{fill:#FFFFFF;}
	.st1{fill:#33A1D9;}
</style>
<circle class="st0" cx="9" cy="9" r="9"/>
<g>
	<path class="st1" d="M7.68,11.76V11.4c0-1.08,0.12-1.8,0.24-2.04s0.6-0.72,1.32-1.2c0.48-0.36,0.84-0.6,0.96-0.84
		c0.12-0.24,0.24-0.6,0.24-0.96c0-0.48-0.12-0.84-0.48-1.08C9.72,5.04,9.36,4.92,9,4.92c-1.08,0-1.68,0.72-1.8,2.28L4.68,6.84
		c0.24-1.32,0.72-2.4,1.56-3.12C6.96,3,7.92,2.64,9.12,2.64s2.16,0.36,3,1.08c0.84,0.72,1.2,1.56,1.2,2.64
		c0,1.32-0.72,2.4-2.04,3.36c-0.6,0.36-0.96,0.72-1.08,0.96s-0.24,0.6-0.24,1.2L7.68,11.76L7.68,11.76z M10.56,15.36H7.68V12.6h2.88
		V15.36L10.56,15.36z"/>
</g>
</svg>
