<?xml version="1.0" encoding="utf-8"?>
<!-- Generator: Adobe Illustrator 22.1.0, SVG Export Plug-In . SVG Version: 6.00 Build 0)  -->
<svg version="1.1" id="Layer_1" xmlns="http://www.w3.org/2000/svg" xmlns:xlink="http://www.w3.org/1999/xlink" x="0px" y="0px"
	 viewBox="0 0 18 18" style="enable-background:new 0 0 18 18;" xml:space="preserve">
<style type="text/css">
	.st0{fill:#FFFFFF;}
	.st1{fill:#CBC12D;}
</style>
<circle class="st0" cx="9" cy="9" r="9"/>
<g>
	<path class="st1" d="M10.2,14.1L10.2,14.1L10.2,14.1L10.2,14.1z"/>
	<circle class="st1" cx="10.1" cy="3.3" r="1.6"/>
	<path class="st1" d="M10.6,13.6c-0.2,0.2-0.4,0.4-0.5,0.5c-0.4,0.4-0.6,0.6-0.9,0.5C9,14.5,8.9,14.1,9,13.8c0-0.1,0-0.3,0.2-0.7
		l2-7.3L6.6,6.6v0.4c0.1,0,0.3-0.1,0.6-0.1c0,0,0.8-0.1,1.1,0.1L8.3,7c0,0.1,0,0.2,0,0.2c0,0.1-0.1,0.6-0.4,1.5l-1.3,4.8
		c-0.2,0.7-0.3,1.2-0.3,1.5c0,0.3-0.1,0.9,0.6,1.2c0.9,0.4,2-0.2,2.8-0.8c0.9-0.7,0.9-0.8,1.7-1.7L11,13.2
		C11,13.3,10.7,13.5,10.6,13.6z"/>
</g>
</svg>
