<?xml version="1.0" encoding="utf-8"?>
<!-- Generator: Adobe Illustrator 22.1.0, SVG Export Plug-In . SVG Version: 6.00 Build 0)  -->
<svg version="1.1" id="Layer_1" xmlns="http://www.w3.org/2000/svg" xmlns:xlink="http://www.w3.org/1999/xlink" x="0px" y="0px"
	 viewBox="0 0 64 64" style="enable-background:new 0 0 64 64;" xml:space="preserve">
<style type="text/css">
	.st0{fill:#A7B2B1;}
</style>
<g>
	<g>
		<path class="st0" d="M59.7,4.3H4.3c-2.2,0-4,1.8-4,4v35.6c0,2.2,1.8,4,4,4h19.8c0,2.8-0.1,6.6-1.2,7.9h-0.8c-1.1,0-2,0.9-2,2
			s0.9,2,2,2h19.8c1.1,0,2-0.9,2-2s-0.9-2-2-2h-0.8c-1.1-1.3-1.2-5-1.2-7.9h19.8c2.2,0,4-1.8,4-4V8.3C63.6,6.1,61.8,4.3,59.7,4.3z
			 M59.7,39.9H4.3V8.3h55.3v31.6H59.7z"/>
		<path class="st0" d="M13.5,19.2c0.1,0.2,0.2,0.5,0.2,0.7l3.9,9.6c0.4,0.9,0.7,1.5,0.8,1.9c0.2,0.3,0.4,0.6,0.7,0.9
			c0.3,0.2,0.8,0.4,1.4,0.4c0.4,0,0.8-0.1,1.1-0.2s0.6-0.4,0.8-0.7c0.2-0.3,0.4-0.7,0.6-1.1s0.3-0.8,0.4-1l3.9-9.7
			c0.1-0.2,0.2-0.4,0.2-0.6v10.9c0,0.9,0.2,1.5,0.6,1.9s0.9,0.7,1.5,0.7s1.1-0.2,1.5-0.7c0.4-0.4,0.6-1,0.6-1.9v-5.5
			c0-1.7,0.2-3,0.6-4s1.3-1.4,2.7-1.4c0.7,0,1.2,0.2,1.5,0.6s0.5,0.8,0.6,1.4s0.1,1.4,0.1,2.4v6.5c0,0.9,0.2,1.5,0.6,1.9
			c0.4,0.4,0.9,0.6,1.5,0.6s1.2-0.2,1.5-0.6c0.4-0.4,0.6-1,0.6-1.9v-5.4c0-1.7,0.1-3,0.4-3.6c0.2-0.6,0.6-1,1.1-1.3s1-0.5,1.5-0.5
			c0.7,0,1.2,0.2,1.5,0.6s0.6,0.8,0.6,1.4c0.1,0.6,0.1,1.2,0.1,2.1v6.9c0,0.9,0.2,1.5,0.6,1.9c0.4,0.4,0.9,0.7,1.5,0.7
			s1.2-0.2,1.5-0.6c0.4-0.4,0.6-1,0.6-1.9v-8.1c0-1.6-0.2-2.7-0.5-3.5c-0.4-0.8-1-1.4-1.8-1.9c-0.8-0.4-1.8-0.7-2.9-0.7
			c-0.9,0-1.9,0.2-2.6,0.6c-0.7,0.4-1.5,1-2.2,1.9c-0.5-0.8-1.1-1.4-1.8-1.9c-0.7-0.4-1.6-0.6-2.7-0.6c-1,0-1.9,0.2-2.7,0.6
			s-1.5,1-2.3,1.9v-0.4c0-0.7-0.2-1.2-0.6-1.5c-0.4-0.4-0.9-0.6-1.4-0.6c-0.6,0-1,0.2-1.4,0.6c-0.1,0.1-0.2,0.3-0.3,0.5
			c-0.1-0.2-0.2-0.4-0.4-0.6c-0.4-0.4-0.8-0.5-1.3-0.5c-0.6,0-0.9,0.2-1.2,0.5c-0.2,0.3-0.6,0.9-0.8,1.7L20.5,28l-3.3-9.3
			c-0.3-0.9-0.6-1.5-0.9-2c-0.2-0.4-0.7-0.6-1.4-0.6c-0.4,0-0.7,0.1-1,0.2c-0.3,0.2-0.6,0.4-0.7,0.7C13,17.2,13,17.6,13,17.8
			c0,0.2,0.1,0.4,0.1,0.6C13.3,18.7,13.4,19,13.5,19.2z"/>
	</g>
</g>
</svg>
