<?xml version="1.0" encoding="UTF-8"?><svg id="Layer_1" xmlns="http://www.w3.org/2000/svg" width="160" height="160" viewBox="0 0 160 160"><defs><style>.cls-1{fill:#adadad;}</style></defs><g id="Layer_11"><path class="cls-1" d="M109,100.1c7.5-9.5,12.1-21.5,12.1-34.5,0-30.7-24.9-55.6-55.6-55.6S10,34.9,10,65.5s21.6,55.9,55.5,55.5c0,0,20.7.8,34.5-12.1l41.1,41.1,8.9-8.9-41.1-41.1h0l.1.1ZM65.5,109.2c-24.1,0-43.6-19.5-43.6-43.6s19.5-43.7,43.6-43.7,43.6,19.5,43.6,43.6-19.5,43.6-43.6,43.6h0v.1Z"/></g></svg>